<svg width="95" height="94" viewBox="0 0 95 94" fill="none" xmlns="http://www.w3.org/2000/svg">
<path fill-rule="evenodd" clip-rule="evenodd" d="M6.33745 62.2491C5.1765 62.2491 4.59512 61.6765 4.59512 60.7347C4.59512 58.9881 6.54953 58.3919 10.1166 58.0126C10.1166 60.3491 8.53686 62.2491 6.33745 62.2491V62.2491ZM7.87556 49.1035C5.32711 49.1035 2.39442 50.3044 0.802683 51.5731L2.25664 54.6327C3.53331 53.4652 5.59709 52.4663 7.45894 52.4663C9.22807 52.4663 10.2049 53.0579 10.2049 54.2491C10.2049 55.0508 9.55756 55.4561 8.3343 55.615C3.76219 56.2084 0.175781 57.4706 0.175781 60.9944C0.175781 63.7883 2.16554 65.4777 5.27284 65.4777C7.48968 65.4777 9.46416 64.2455 10.4027 62.6195V65.0231H14.5358V54.9515C14.5358 50.7929 11.6443 49.1035 7.87556 49.1035V49.1035Z" fill="#5D5D5D"/>
<path fill-rule="evenodd" clip-rule="evenodd" d="M49.375 49.5593V65.024H53.7983V57.5722C53.7983 54.0308 55.9425 52.9912 57.437 52.9912C58.109 52.9853 58.7675 53.1799 59.3283 53.5503L60.1336 49.4617C59.5038 49.2103 58.8297 49.0888 58.1517 49.1044C55.8775 49.1044 54.4481 50.1116 53.506 52.1585V49.5593H49.375Z" fill="#5D5D5D"/>
<path fill-rule="evenodd" clip-rule="evenodd" d="M80.6425 49.1035C78.3033 49.1035 76.5544 50.4866 75.6447 51.8187C74.7999 50.0968 73.0096 49.1035 70.865 49.1035C68.5259 49.1035 66.9067 50.4031 66.1596 51.8976V49.5582H61.8965V65.0229H66.3219V57.0633C66.3219 54.2043 67.819 52.8337 69.216 52.8337C70.4802 52.8337 71.6424 53.652 71.6424 55.7636V65.023H76.0624V57.0633C76.0624 54.1719 77.5234 52.8337 78.9854 52.8337C80.1551 52.8337 81.3889 53.6843 81.3889 55.7312V65.023H85.8082V54.3341C85.8082 50.8578 83.4688 49.1035 80.6424 49.1035" fill="#5D5D5D"/>
<path fill-rule="evenodd" clip-rule="evenodd" d="M38.607 49.5585H34.5995V47.986C34.5995 45.9394 35.7676 45.3546 36.7748 45.3546C37.4644 45.3621 38.1426 45.5312 38.755 45.8483L40.1188 42.7296C40.1188 42.7296 38.7369 41.8262 36.2223 41.8262C33.396 41.8262 30.1795 43.4184 30.1795 48.4214V49.5585H23.4708V47.986C23.4708 45.9394 24.639 45.3546 25.6462 45.3546C26.3368 45.3539 27.017 45.5235 27.6264 45.8483L28.9903 42.7296C28.1759 42.2523 26.8677 41.8262 25.0938 41.8262C22.2673 41.8262 19.0508 43.4184 19.0508 48.4214V49.5585H16.4844V52.9698H19.0507V65.0232H23.4708V52.9698H30.1795V65.0232H34.5996V52.9698H38.6071V49.5585" fill="#5D5D5D"/>
<path d="M45.6618 49.5586H41.2461V65.0233H45.6618V49.5586Z" fill="#5D5D5D"/>
<path fill-rule="evenodd" clip-rule="evenodd" d="M41.4082 46.9293H45.7346C48.2579 38.9957 56.8205 32.0295 67.0076 32.0295C79.3915 32.0295 90.0924 41.4565 90.0924 56.1333C90.1264 59.1417 89.71 62.1383 88.8572 65.0235H93.0555L93.0972 64.879C93.8048 62.0181 94.1537 59.0803 94.1358 56.1333C94.1358 39.7665 82.2097 27.9863 67.0076 27.9863C55.0676 27.9863 44.4277 36.2736 41.4082 46.9293Z" fill="#5D5D5D"/>
</svg>
