<svg width="48" height="48" viewBox="0 0 48 48" fill="none" xmlns="http://www.w3.org/2000/svg">
<path d="M24 0.75C11.1799 0.75 0.75 11.1799 0.75 24C0.75 36.8201 11.1799 47.25 24 47.25C36.8201 47.25 47.25 36.8201 47.25 24C47.25 11.1799 36.8201 0.75 24 0.75ZM39.3722 11.4718C42.1381 14.8511 43.813 19.1553 43.8567 23.8426C43.202 23.7041 36.6363 22.3724 30.0284 23.2034C29.4892 21.8871 28.9802 20.7291 28.2831 19.3021C35.6257 16.3043 38.9535 12.0382 39.3722 11.4718V11.4718ZM37.1645 9.17531C36.8073 9.68409 33.8179 13.7021 26.7562 16.349C23.502 10.37 19.8952 5.45822 19.3463 4.72322C25.644 3.20512 32.2806 4.84228 37.1645 9.17531V9.17531ZM15.557 6.05813C16.0806 6.77616 19.6293 11.694 22.9198 17.5433C13.6304 20.0102 5.44856 19.9747 4.56038 19.9629C5.84813 13.8005 10.0011 8.67872 15.557 6.05813ZM4.14094 24.0303C4.14094 23.8272 4.14497 23.6251 4.15106 23.4234C5.01994 23.4413 14.6436 23.5653 24.561 20.5972C25.1295 21.7099 25.6726 22.8393 26.1711 23.9675C18.9899 25.9901 12.4654 31.7981 9.24628 37.3087C6.07444 33.788 4.14094 29.1309 4.14094 24.0303ZM11.8103 39.6971C13.8847 35.4565 19.5145 29.9826 27.5209 27.2512C30.309 34.4965 31.462 40.5687 31.7573 42.3111C25.3718 45.031 17.6934 44.2848 11.8103 39.6971V39.6971ZM35.096 40.493C34.8924 39.2849 33.8354 33.4714 31.238 26.3336C37.4611 25.3374 42.9286 26.9681 43.608 27.1825C42.7228 32.7082 39.5512 37.4804 35.096 40.493Z" fill="white"/>
</svg>
