<svg width="48" height="48" viewBox="0 0 48 48" fill="none" xmlns="http://www.w3.org/2000/svg">
<path d="M47.0906 17.8875C47.4562 17.5969 48 17.8687 48 18.3281V37.5C48 39.9844 45.9844 42 43.5 42H4.5C2.01562 42 0 39.9844 0 37.5V18.3375C0 17.8688 0.534375 17.6062 0.909375 17.8969C3.00937 19.5281 5.79375 21.6 15.3563 28.5469C17.3344 29.9906 20.6719 33.0281 24 33.0094C27.3469 33.0375 30.75 29.9344 32.6531 28.5469C42.2156 21.6 44.9906 19.5188 47.0906 17.8875ZM24 30C26.175 30.0375 29.3062 27.2625 30.8812 26.1188C43.3219 17.0906 44.2687 16.3031 47.1375 14.0531C47.6812 13.6312 48 12.975 48 12.2812V10.5C48 8.01562 45.9844 6 43.5 6H4.5C2.01562 6 0 8.01562 0 10.5V12.2812C0 12.975 0.31875 13.6219 0.8625 14.0531C3.73125 16.2937 4.67813 17.0906 17.1188 26.1188C18.6938 27.2625 21.825 30.0375 24 30Z" fill="white"/>
</svg>
