<svg width="190" height="190" viewBox="0 0 190 190" fill="none" xmlns="http://www.w3.org/2000/svg">
<path d="M18.228 142.5V52.9H32.948V142.5H18.228ZM28.34 142.5V129.06H78.516V142.5H28.34ZM28.34 103.204V90.276H74.164V103.204H28.34ZM28.34 66.34V52.9H77.876V66.34H28.34ZM132.426 143.78C126.282 143.78 120.479 142.585 115.018 140.196C109.557 137.807 104.778 134.521 100.682 130.34C96.586 126.073 93.3433 121.167 90.954 115.62C88.65 109.988 87.498 103.972 87.498 97.572C87.498 91.172 88.65 85.1987 90.954 79.652C93.3433 74.1053 96.586 69.2413 100.682 65.06C104.863 60.7933 109.727 57.508 115.274 55.204C120.906 52.8147 126.965 51.62 133.45 51.62C140.533 51.62 147.103 52.9853 153.162 55.716C159.221 58.4467 164.298 62.3293 168.394 67.364L158.41 77.348C155.765 73.5933 152.223 70.7347 147.786 68.772C143.349 66.724 138.57 65.7 133.45 65.7C127.306 65.7 121.887 67.0653 117.194 69.796C112.586 72.4413 109.002 76.1533 106.442 80.932C103.882 85.7107 102.602 91.2573 102.602 97.572C102.602 103.887 103.882 109.476 106.442 114.34C109.087 119.119 112.629 122.873 117.066 125.604C121.503 128.335 126.538 129.7 132.17 129.7C138.143 129.7 143.263 128.633 147.53 126.5C151.882 124.281 155.21 121.039 157.514 116.772C159.818 112.42 160.97 107.087 160.97 100.772L170.186 107.428H131.914V93.988H176.202V96.036C176.202 106.703 174.282 115.577 170.442 122.66C166.687 129.743 161.525 135.033 154.954 138.532C148.383 142.031 140.874 143.78 132.426 143.78Z" fill="white"/>
</svg>
