<svg width="760" height="116" viewBox="0 0 760 116" fill="none" xmlns="http://www.w3.org/2000/svg">
<path d="M0.904 90V2.70399H7.688V90H0.904ZM5.256 90V83.856H57.736V90H5.256ZM5.256 48.144V42.256H53.768V48.144H5.256ZM5.256 8.848V2.70399H57.096V8.848H5.256ZM98.203 91.28C92.571 91.28 87.5363 89.9147 83.099 87.184C78.6617 84.4533 75.163 80.784 72.603 76.176C70.043 71.4827 68.763 66.192 68.763 60.304C68.763 54.416 70.043 49.1253 72.603 44.432C75.163 39.7387 78.6617 36.0267 83.099 33.296C87.5363 30.5653 92.571 29.2 98.203 29.2C102.555 29.2 106.566 30.0533 110.235 31.76C113.99 33.4667 117.147 35.9413 119.707 39.184C122.267 42.3413 123.888 46.096 124.571 50.448V69.904C123.803 74.1707 122.182 77.9253 119.707 81.168C117.232 84.3253 114.118 86.8 110.363 88.592C106.694 90.384 102.64 91.28 98.203 91.28ZM99.355 85.136C103.878 85.136 107.846 84.0693 111.259 81.936C114.672 79.8027 117.318 76.9013 119.195 73.232C121.158 69.4773 122.139 65.168 122.139 60.304C122.139 55.3547 121.158 51.0453 119.195 47.376C117.232 43.6213 114.502 40.6773 111.003 38.544C107.59 36.4107 103.579 35.344 98.971 35.344C94.4483 35.344 90.395 36.4107 86.811 38.544C83.3123 40.6773 80.539 43.6213 78.491 47.376C76.443 51.0453 75.419 55.312 75.419 60.176C75.419 65.04 76.443 69.3493 78.491 73.104C80.539 76.8587 83.355 79.8027 86.939 81.936C90.523 84.0693 94.6617 85.136 99.355 85.136ZM128.411 90H121.883V74L123.419 59.408L121.883 44.944V0.143997H128.411V90ZM173.328 91.28C167.696 91.28 162.661 89.9147 158.224 87.184C153.787 84.4533 150.288 80.784 147.728 76.176C145.168 71.4827 143.888 66.192 143.888 60.304C143.888 54.416 145.168 49.1253 147.728 44.432C150.288 39.7387 153.787 36.0267 158.224 33.296C162.661 30.5653 167.696 29.2 173.328 29.2C177.68 29.2 181.691 30.0533 185.36 31.76C189.115 33.4667 192.272 35.9413 194.832 39.184C197.392 42.3413 199.013 46.096 199.696 50.448V69.904C198.928 74.1707 197.307 77.9253 194.832 81.168C192.357 84.3253 189.243 86.8 185.488 88.592C181.819 90.384 177.765 91.28 173.328 91.28ZM174.48 85.136C179.003 85.136 182.971 84.0693 186.384 81.936C189.797 79.8027 192.443 76.9013 194.32 73.232C196.283 69.4773 197.264 65.168 197.264 60.304C197.264 55.3547 196.283 51.0453 194.32 47.376C192.357 43.6213 189.627 40.6773 186.128 38.544C182.715 36.4107 178.704 35.344 174.096 35.344C169.573 35.344 165.52 36.4107 161.936 38.544C158.437 40.6773 155.664 43.6213 153.616 47.376C151.568 51.0453 150.544 55.312 150.544 60.176C150.544 65.04 151.568 69.3493 153.616 73.104C155.664 76.8587 158.48 79.8027 162.064 81.936C165.648 84.0693 169.787 85.136 174.48 85.136ZM203.536 90H197.008V74L198.544 59.408L197.008 44.944V0.143997H203.536V90ZM243.077 90.128L216.581 30.48H223.749L246.661 83.344H243.333L267.269 30.48H274.437L246.405 90.128H243.077ZM227.589 115.216L242.949 83.728L246.405 90.128L234.629 115.216H227.589ZM357.959 91.152C351.644 91.152 345.799 90.0427 340.423 87.824C335.047 85.52 330.396 82.3627 326.471 78.352C322.546 74.3413 319.474 69.6053 317.255 64.144C315.122 58.6827 314.055 52.752 314.055 46.352C314.055 39.952 315.164 34.0213 317.383 28.56C319.602 23.0987 322.674 18.32 326.599 14.224C330.61 10.128 335.303 6.97066 340.679 4.752C346.055 2.448 351.9 1.296 358.215 1.296C365.298 1.296 371.783 2.704 377.671 5.52C383.559 8.336 388.338 12.3893 392.007 17.68L387.271 22.416C384.028 17.7227 379.89 14.1387 374.855 11.664C369.906 9.104 364.359 7.824 358.215 7.824C351.047 7.824 344.647 9.488 339.015 12.816C333.383 16.144 328.988 20.7093 325.831 26.512C322.674 32.3147 321.095 38.928 321.095 46.352C321.095 53.776 322.674 60.3893 325.831 66.192C328.988 71.9947 333.298 76.5173 338.759 79.76C344.22 83.0027 350.535 84.624 357.703 84.624C364.53 84.624 370.46 83.216 375.495 80.4C380.53 77.584 384.455 73.488 387.271 68.112C390.087 62.6507 391.495 56.1653 391.495 48.656L394.951 51.216H356.423V45.072H398.535V46.224C398.535 55.7813 396.828 63.9307 393.415 70.672C390.087 77.328 385.351 82.4053 379.207 85.904C373.148 89.4027 366.066 91.152 357.959 91.152ZM438.396 91.28C433.617 91.28 429.351 90.1707 425.596 87.952C421.841 85.7333 418.897 82.6613 416.764 78.736C414.716 74.8107 413.692 70.288 413.692 65.168V30.48H420.22V64.912C420.22 68.9227 420.945 72.464 422.396 75.536C423.932 78.5227 426.065 80.8693 428.796 82.576C431.527 84.2827 434.727 85.136 438.396 85.136C443.857 85.136 448.209 83.3013 451.452 79.632C454.78 75.8773 456.444 70.9707 456.444 64.912V30.48H462.972V65.168C462.972 70.288 461.905 74.8107 459.772 78.736C457.724 82.6613 454.823 85.7333 451.068 87.952C447.399 90.1707 443.175 91.28 438.396 91.28ZM490.069 90V5.26399H496.597V90H490.069ZM474.709 36.24V30.48H511.957V36.24H474.709ZM525.1 90V30.48H531.628V90H525.1ZM566.828 90V53.008C566.828 47.632 565.207 43.3227 561.964 40.08C558.807 36.8373 554.753 35.216 549.804 35.216C546.476 35.216 543.447 35.9413 540.716 37.392C537.985 38.8427 535.767 40.8907 534.06 43.536C532.439 46.1813 531.628 49.2533 531.628 52.752L528.3 51.984C528.3 47.376 529.281 43.3653 531.244 39.952C533.292 36.5387 536.023 33.8933 539.436 32.016C542.935 30.1387 546.817 29.2 551.084 29.2C555.351 29.2 559.148 30.1387 562.476 32.016C565.804 33.8933 568.449 36.5387 570.412 39.952C572.375 43.3653 573.356 47.376 573.356 51.984V90H566.828ZM608.556 90V53.008C608.556 47.632 606.935 43.3227 603.692 40.08C600.535 36.8373 596.481 35.216 591.532 35.216C588.204 35.216 585.132 35.9413 582.316 37.392C579.585 38.8427 577.409 40.8907 575.788 43.536C574.167 46.1813 573.356 49.2533 573.356 52.752L569.388 51.984C569.473 47.2907 570.54 43.28 572.588 39.952C574.721 36.5387 577.537 33.8933 581.036 32.016C584.535 30.1387 588.417 29.2 592.684 29.2C596.951 29.2 600.748 30.1387 604.076 32.016C607.404 33.8933 610.049 36.5813 612.012 40.08C614.06 43.4933 615.084 47.504 615.084 52.112V90H608.556ZM659.343 91.28C653.626 91.28 648.463 89.9147 643.855 87.184C639.332 84.4533 635.748 80.784 633.103 76.176C630.458 71.4827 629.135 66.192 629.135 60.304C629.135 54.5013 630.458 49.2533 633.103 44.56C635.748 39.8667 639.332 36.1547 643.855 33.424C648.378 30.608 653.455 29.2 659.087 29.2C663.695 29.2 667.791 30.096 671.375 31.888C675.044 33.5947 678.031 36.0267 680.335 39.184C682.724 42.3413 684.26 46.096 684.943 50.448V69.904C684.175 74.256 682.596 78.0533 680.207 81.296C677.903 84.4533 674.959 86.928 671.375 88.72C667.876 90.4267 663.866 91.28 659.343 91.28ZM660.239 85.136C667.066 85.136 672.484 82.8747 676.495 78.352C680.591 73.744 682.639 67.728 682.639 60.304C682.639 55.2693 681.7 50.9173 679.823 47.248C678.031 43.4933 675.428 40.592 672.015 38.544C668.602 36.4107 664.634 35.344 660.111 35.344C655.418 35.344 651.236 36.4107 647.567 38.544C643.983 40.6773 641.124 43.6213 638.991 47.376C636.943 51.1307 635.919 55.3973 635.919 60.176C635.919 65.04 636.943 69.3493 638.991 73.104C641.124 76.8587 644.026 79.8027 647.695 81.936C651.364 84.0693 655.546 85.136 660.239 85.136ZM682.383 90V74L683.791 59.408L682.383 44.944V30.48H688.911V90H682.383ZM752.9 90V54.672C752.9 48.8693 751.193 44.176 747.78 40.592C744.367 37.008 739.844 35.216 734.212 35.216C730.372 35.216 726.959 36.0693 723.972 37.776C721.071 39.3973 718.767 41.6587 717.06 44.56C715.439 47.4613 714.628 50.832 714.628 54.672L711.3 52.752C711.3 48.2293 712.367 44.2187 714.5 40.72C716.633 37.136 719.535 34.32 723.204 32.272C726.873 30.224 731.055 29.2 735.748 29.2C740.441 29.2 744.537 30.3093 748.036 32.528C751.62 34.6613 754.393 37.6053 756.356 41.36C758.319 45.1147 759.3 49.296 759.3 53.904V90H752.9ZM708.1 90V30.48H714.628V90H708.1Z" fill="white"/>
</svg>
