<svg width="94" height="94" viewBox="0 0 94 94" fill="none" xmlns="http://www.w3.org/2000/svg">
<path d="M20.4799 51.3436V22.0376H9.50391V49.512C9.50391 57.062 14.4824 60.5009 19.1079 60.5009C20.4863 60.5009 21.8674 60.1849 23.1059 59.6061C23.2888 59.5209 23.5815 59.3378 23.5815 59.3378C23.5815 59.3378 23.3035 59.0447 23.19 58.9156C21.4339 56.9155 20.4799 54.3127 20.4799 51.3436Z" fill="#5D5D5D"/>
<path d="M84.5062 44.0172V33.0274H80.5896C78.9532 24.3894 69.8861 18.7169 60.7742 22.1265C55.6996 24.0259 51.5781 30.0995 51.5781 35.5239V60.4909C51.5781 60.4909 52.0309 60.4918 52.0355 60.4918C52.0419 60.4918 52.0483 60.4918 52.0547 60.4918C54.881 60.37 57.5225 59.173 59.4909 57.1207C61.4666 55.0619 62.5541 52.3593 62.5541 49.5121H67.1275V38.5223H62.5541V35.5019C62.5541 34.3279 63.1734 33.2298 64.1987 32.6592C67.0095 31.0969 69.8715 33.1071 69.8715 35.7748V45.8488C69.8715 49.8354 71.3734 53.5343 74.1018 56.2662C76.7114 58.879 80.2392 60.381 84.0351 60.4945C84.0397 60.4945 84.5062 60.4945 84.5062 60.4945V49.513C84.5062 49.513 84.5062 49.5121 84.5052 49.5121C82.4536 49.5066 80.8475 47.8517 80.8475 45.8488V44.0172H84.5062Z" fill="#5D5D5D"/>
<path d="M37.8593 33.0273V47.6804C37.8593 48.6924 37.0406 49.512 36.0299 49.512C35.0192 49.512 34.2006 48.6924 34.2006 47.6804V33.0273H23.2246V51.3436C23.2246 56.3934 27.3278 60.5018 32.3713 60.5018C34.5509 60.5018 36.6629 59.7206 38.3166 58.3038C38.1456 59.6556 37.4001 60.7811 36.1598 61.5586C34.9973 62.2876 33.4835 62.6723 31.7813 62.6732C30.0288 62.6732 28.2452 62.2601 26.6244 61.479C26.6244 61.479 26.3345 61.3407 25.9686 61.1319V70.8935C28.4117 71.8844 31.0871 72.4083 33.6802 72.4083C37.7806 72.4083 41.5225 71.1243 44.2153 68.7936C47.2383 66.1771 48.8353 62.36 48.8353 57.7543V33.0273H37.8593Z" fill="#5D5D5D"/>
</svg>
