<svg width="390" height="3930" viewBox="0 0 390 3930" fill="none" xmlns="http://www.w3.org/2000/svg">
<path d="M496.699 1067.5V424.4L430.699 395.9H372.999H317.999L286.499 364.3L-73.901 4H-139.201L-177.001 41.8V914.1L133.799 1605.3L173.699 1645.2H394.199L447.899 1591.5V1480.1L545.399 1382.6V1145.7L496.699 1067.5Z" fill="#7E7E7E" stroke="#7E7E7E" stroke-width="8" stroke-linejoin="round"/>
<path d="M198.726 1061.19L244.381 1054.82L263.118 1071.37L214.459 1126.46L191.951 1151.94L177.71 1139.36L164.801 1153.98L179.041 1166.55L81.7237 1276.73L62.9866 1260.18L44.6242 1243.96L93.283 1188.87L111.588 1106.97L147.006 1066.87L198.726 1061.19Z" fill="#63B600" stroke="#63B600" stroke-width="8" stroke-linejoin="round"/>
<path d="M-28 229H102V523H-28V229Z" fill="#63B600" stroke="#63B600" stroke-width="8" stroke-linejoin="round"/>
<path d="M426.931 2121.42H662.397L1017.79 2114.35L1335.85 1796.3L2131.77 2592.21L1442.9 3281.08L1345.04 3281.08L1214.79 3281.08L1214.72 3126.58L1207.36 3119.22H1199.59L1184.95 3133.86V3183.5H1142.52L1142.52 3258.88L1113.88 3287.51L950.26 3287.51L630.719 3607.05L508.955 3607.05L178.17 3276.27L369.16 3085.28L357.422 3073.68L166.503 3264.6L137.441 3235.54L137.441 3140.65L-78.5799 2924.63H-210.526L-458.791 2676.36V2657.98L-369.696 2568.88L-306.056 2632.52L-291.914 2618.38L-355.554 2554.74L-349.119 2548.3L-349.119 2530.2L-600.283 2279.04L-600.283 2110.46L-411.132 1921.31L-390.06 1921.31L-375.353 1906.6V1891.75L-384.828 1882.28L-396.566 1882.28L-406.324 1882.28L-411.556 1877.05V1861.77L-401.94 1852.16L-10.3442 1852.16L5.77785 1868.28V1880.02L-7.72787 1893.52L-25.547 1893.52L-46.1944 1893.52L-57.9324 1905.26L-57.9325 1936.94L-44.1439 1950.73L256.094 1950.73L426.931 2121.42Z" fill="#7E7E7E"/>
<path d="M-85.9985 1977H72.3015V2006.9H-56.0985L-85.9985 1977Z" fill="#63B600" stroke="#63B600" stroke-width="8" stroke-linejoin="round"/>
<path fill-rule="evenodd" clip-rule="evenodd" d="M160 2842.11L160 2955H155.732H152.634H150.712H141L141 2859.55V2842.42C111.057 2838.28 88 2812.58 88 2781.5C88 2747.53 115.534 2720 149.5 2720C178.305 2720 202.485 2739.8 209.167 2766.54H229.747L250.643 2766.23V2797.23H227.954H211.487H208.971C202.895 2820.27 183.783 2838.02 160 2842.11Z" fill="#63B600"/>
</svg>
