<svg width="48" height="48" viewBox="0 0 48 48" fill="none" xmlns="http://www.w3.org/2000/svg">
<path d="M46.386 15.76C46.386 5.346 39.564 2.294 39.564 2.294C36.124 0.714 30.216 0.05 24.082 0H23.93C17.792 0.05 11.89 0.714 8.44998 2.294C8.44998 2.294 1.62598 5.346 1.62598 15.758C1.62598 18.144 1.57998 20.996 1.65598 24.018C1.90398 34.202 3.52398 44.238 12.938 46.728C17.278 47.876 21.006 48.118 24.01 47.952C29.454 47.652 32.51 46.008 32.51 46.008L32.33 42.058C32.33 42.058 28.44 43.284 24.07 43.138C19.74 42.988 15.172 42.67 14.472 37.354C14.4063 36.8601 14.3742 36.3623 14.376 35.864C14.376 35.864 18.626 36.904 24.012 37.15C27.304 37.3 30.392 36.956 33.528 36.584C39.542 35.866 44.778 32.16 45.436 28.774C46.47 23.444 46.386 15.758 46.386 15.758V15.76ZM38.338 29.178H33.344V16.938C33.344 14.358 32.258 13.05 30.088 13.05C27.688 13.05 26.484 14.602 26.484 17.676V24.374H21.516V17.674C21.516 14.6 20.312 13.048 17.912 13.048C15.742 13.048 14.656 14.358 14.656 16.938V29.176H9.66198V16.57C9.66198 13.99 10.318 11.942 11.636 10.43C12.996 8.912 14.776 8.136 16.984 8.136C19.54 8.136 21.476 9.118 22.756 11.084L24 13.17L25.244 11.084C26.524 9.118 28.46 8.136 31.016 8.136C33.224 8.136 35.004 8.912 36.364 10.428C37.68 11.942 38.336 13.99 38.336 16.568V29.178H38.338Z" fill="white"/>
</svg>
