<svg width="48" height="48" viewBox="0 0 48 48" fill="none" xmlns="http://www.w3.org/2000/svg">
<path d="M6.70317 13.3406C6.75942 12.7875 6.5438 12.2344 6.1313 11.8594L1.90317 6.75937V6H15.0469L25.2094 28.2844L34.1438 6H46.6782V6.75937L43.0594 10.2281C42.75 10.4625 42.5907 10.8563 42.6563 11.2406V36.7406C42.5907 37.125 42.75 37.5188 43.0594 37.7531L46.5938 41.2219V41.9813H28.8094V41.2219L32.475 37.6688C32.8313 37.3125 32.8313 37.2 32.8313 36.6563V16.05L22.6407 41.9156H21.2626L9.41255 16.05V33.3844C9.30942 34.1156 9.55317 34.8469 10.0688 35.3719L14.8313 41.1469V41.9063H1.3313V41.1563L6.0938 35.3719C6.60005 34.8469 6.83442 34.1063 6.70317 33.3844V13.3406Z" fill="white"/>
</svg>
