<svg width="95" height="94" viewBox="0 0 95 94" fill="none" xmlns="http://www.w3.org/2000/svg">
<path d="M46.0346 43C44.8362 43 43.7697 43.3958 42.8792 44.6822H42.8352V43.2969H39.9766V53.9617H42.9671V47.9036C42.9671 46.4523 43.7148 45.4188 44.9132 45.4188C45.8477 45.4188 46.5074 45.9356 46.5074 47.4748V53.9727H49.498V46.7272C49.498 44.6602 48.6074 43 46.0346 43Z" fill="#5D5D5D"/>
<path d="M38.3927 53.9615V52.6311V48.64V46.4521C38.3927 44.0003 36.1938 43.0107 33.5551 43.0107C29.8169 43.0107 28.6624 45.1107 28.5525 46.7489H31.4111C31.4771 45.7924 32.2027 45.1767 33.4231 45.1767C34.7315 45.1767 35.5231 45.8034 35.5231 47.0678V47.5625L32.7635 47.7275C28.5965 47.9803 28.2227 49.8604 28.2227 51.0039C28.2227 53.4337 30.2787 54.2583 31.9609 54.2583C33.2033 54.2583 34.6216 53.8845 35.6111 52.5761H35.6551V53.9615H38.3927V53.9615ZM35.5341 50.2892C35.5341 51.5756 34.0169 52.0924 33.0823 52.0924C32.0818 52.0924 31.2132 51.8065 31.2132 50.85C31.2132 50.0803 31.675 49.6625 33.0383 49.5416L35.5231 49.3107L35.5341 50.2892Z" fill="#5D5D5D"/>
<path d="M81.8548 46.1225C81.8548 45.4738 82.6464 45.166 83.427 45.166C84.5705 45.166 85.2082 45.7047 85.2521 46.5953L88.2427 46.5293C88.0778 44.2094 86.2746 43 83.537 43C80.3815 43 79.1171 44.7811 79.1171 46.4194C79.1171 50.8172 85.505 49.201 85.505 50.9821C85.505 51.8507 84.5045 52.0816 83.7459 52.0816C82.8553 52.0816 81.9427 51.6638 81.8988 50.6303H78.9082C79.1611 53.7858 82.1406 54.2366 83.6359 54.2366C88.0338 54.2366 88.4956 51.4989 88.4956 50.6633C88.4956 46.3644 81.8548 48.0246 81.8548 46.1225Z" fill="#5D5D5D"/>
<path d="M78.006 53.9615V52.6311V48.64V46.4521C78.006 44.0003 75.8071 43.0107 73.1684 43.0107C69.4302 43.0107 68.2757 45.1107 68.1658 46.7489H71.0244C71.0904 45.7924 71.816 45.1767 73.0364 45.1767C74.3448 45.1767 75.1364 45.8034 75.1364 47.0678V47.5625L72.3767 47.7275C68.2098 47.9803 67.8359 49.8604 67.8359 51.0039C67.8359 53.4337 69.8919 54.2583 71.5741 54.2583C72.8165 54.2583 74.2349 53.8845 75.2244 52.5761H75.2683V53.9615H78.006V53.9615ZM75.1474 50.2892C75.1474 51.5756 73.6301 52.0924 72.6956 52.0924C71.6951 52.0924 70.8265 51.8065 70.8265 50.85C70.8265 50.0803 71.2883 49.6625 72.6516 49.5416L75.1364 49.3107V50.2892H75.1474V50.2892Z" fill="#5D5D5D"/>
<path d="M64.3074 50.2123C64.1205 51.1908 63.5377 51.8395 62.4383 51.8395C60.877 51.8395 60.3823 50.2673 60.3823 48.8489C60.3823 47.4746 60.6131 45.5285 62.4603 45.5285C63.2299 45.5285 64.0765 45.8584 64.1754 47.2547H67.089L67.2869 47.2437C67.144 44.9788 65.6267 42.9888 62.4493 42.9888C59.2168 42.9888 57.2598 45.2977 57.2598 48.717C57.2598 51.9934 59.0189 54.2363 62.5152 54.2363C65.3738 54.2363 66.7922 52.5432 67.2429 50.2013L64.3074 50.2123Z" fill="#5D5D5D"/>
<path d="M50.3887 43.34H51.774V40.2285H54.7975V43.34H56.3918V45.6489H54.7975V51.1023C54.7975 51.586 55.0064 51.8169 55.7871 51.8169C56.0399 51.8169 56.2049 51.7949 56.3918 51.751V54.1258C55.908 54.1918 55.4242 54.2468 54.9405 54.2468C52.9724 54.2468 51.774 53.763 51.774 51.4321V45.6379H50.3887V43.34Z" fill="#5D5D5D"/>
<path d="M88.7812 43.34H90.1666V40.2285H93.1901V43.34H94.7844V45.6489H93.1901V51.1023C93.1901 51.586 93.399 51.8169 94.1796 51.8169C94.4325 51.8169 94.5974 51.7949 94.7844 51.751V54.1258C94.3006 54.1918 93.8168 54.2468 93.3331 54.2468C91.365 54.2468 90.1666 53.763 90.1666 51.4321V45.6379H88.7812V43.34Z" fill="#5D5D5D"/>
<path d="M24.0777 49.3547C24.0777 50.806 23.3301 51.8395 22.1317 51.8395C21.1971 51.8395 20.5374 51.3228 20.5374 49.7835V43.2856H17.5469V50.5311C17.5469 52.5872 18.7123 54.2474 21.2851 54.2474C22.4835 54.2474 23.2751 53.8515 24.1657 52.5652H24.2097V53.9505H27.0683V43.2856H24.0777V49.3547Z" fill="#5D5D5D"/>
<path d="M11.2802 53.9065L12.2587 55.5887H15.744L13.8969 52.4002C15.5681 50.8829 16.4367 48.651 16.4367 46.4301C16.4367 42.516 13.754 38.5469 8.63045 38.5469C3.50692 38.5469 0.824219 42.516 0.824219 46.4301C0.824219 50.3442 3.50692 54.3133 8.63045 54.3133C9.58699 54.3133 10.4776 54.1703 11.2802 53.9065ZM4.19959 46.4301C4.19959 43.8903 5.56293 41.3285 8.60846 41.3285C11.654 41.3285 13.0173 43.8903 13.0173 46.4301C13.0173 47.5295 12.7645 48.64 12.2257 49.5306H8.7404L9.80689 51.3777C9.44406 51.4766 9.03726 51.5316 8.60846 51.5316C5.56293 51.5316 4.19959 48.9698 4.19959 46.4301Z" fill="#5D5D5D"/>
</svg>
