<svg width="326" height="3402" viewBox="0 0 326 3402" fill="none" xmlns="http://www.w3.org/2000/svg">
<path d="M129.156 497.364H132.924V511.332H141.276V514.5H129.156V497.364ZM148.252 516.036C147.884 517.044 147.372 517.764 146.716 518.196C146.06 518.628 145.148 518.844 143.98 518.844C143.628 518.844 143.276 518.828 142.924 518.796C142.588 518.78 142.244 518.756 141.892 518.724V515.916C142.212 515.948 142.54 515.98 142.876 516.012C143.212 516.044 143.548 516.052 143.884 516.036C144.332 515.988 144.66 515.812 144.868 515.508C145.092 515.204 145.204 514.868 145.204 514.5C145.204 514.228 145.156 513.972 145.06 513.732L140.716 502.092H144.34L147.148 510.588H147.196L149.908 502.092H153.436L148.252 516.036ZM155.321 504.372H153.281V502.092H155.321V501.132C155.321 500.028 155.665 499.124 156.353 498.42C157.041 497.716 158.081 497.364 159.473 497.364C159.777 497.364 160.081 497.38 160.385 497.412C160.689 497.428 160.985 497.444 161.273 497.46V500.004C160.873 499.956 160.457 499.932 160.025 499.932C159.561 499.932 159.225 500.044 159.017 500.268C158.825 500.476 158.729 500.836 158.729 501.348V502.092H161.081V504.372H158.729V514.5H155.321V504.372ZM166.889 502.092H169.385V504.372H166.889V510.516C166.889 511.092 166.985 511.476 167.177 511.668C167.369 511.86 167.753 511.956 168.329 511.956C168.521 511.956 168.705 511.948 168.881 511.932C169.057 511.916 169.225 511.892 169.385 511.86V514.5C169.097 514.548 168.777 514.58 168.425 514.596C168.073 514.612 167.729 514.62 167.393 514.62C166.865 514.62 166.361 514.58 165.881 514.5C165.417 514.436 165.001 514.3 164.633 514.092C164.281 513.884 164.001 513.588 163.793 513.204C163.585 512.82 163.481 512.316 163.481 511.692V504.372H161.417V502.092H163.481V498.372H166.889V502.092Z" fill="black"/>
<path d="M133.476 615.876H137.916L135.756 609.588H135.708L133.476 615.876ZM133.836 605.364H137.7L144.108 622.5H140.196L138.9 618.684H132.492L131.148 622.5H127.356L133.836 605.364ZM153.242 612.372H149.378V622.5H145.97V612.372H143.93V610.092H145.97V609.132C145.97 608.028 146.314 607.124 147.002 606.42C147.69 605.716 148.73 605.364 150.122 605.364C150.426 605.364 150.73 605.38 151.034 605.412C151.338 605.428 151.634 605.444 151.922 605.46V608.004C151.506 607.956 151.09 607.932 150.674 607.932C150.21 607.932 149.874 608.044 149.666 608.268C149.474 608.476 149.378 608.836 149.378 609.348V610.092H153.242V609.132C153.242 608.028 153.586 607.124 154.274 606.42C154.962 605.716 156.002 605.364 157.394 605.364C157.698 605.364 158.002 605.38 158.306 605.412C158.61 605.428 158.906 605.444 159.194 605.46V608.004C158.778 607.956 158.362 607.932 157.946 607.932C157.482 607.932 157.146 608.044 156.938 608.268C156.746 608.476 156.65 608.836 156.65 609.348V610.092H159.002V612.372H156.65V622.5H153.242V612.372ZM163.994 608.172H160.586V605.364H163.994V608.172ZM160.586 610.092H163.994V622.5H160.586V610.092ZM166.671 610.092H169.911V612.396H169.959C170.119 612.012 170.335 611.66 170.607 611.34C170.879 611.004 171.191 610.724 171.543 610.5C171.895 610.26 172.271 610.076 172.671 609.948C173.071 609.82 173.487 609.756 173.919 609.756C174.143 609.756 174.391 609.796 174.663 609.876V613.044C174.503 613.012 174.311 612.988 174.087 612.972C173.863 612.94 173.647 612.924 173.439 612.924C172.815 612.924 172.287 613.028 171.855 613.236C171.423 613.444 171.071 613.732 170.799 614.1C170.543 614.452 170.359 614.868 170.247 615.348C170.135 615.828 170.079 616.348 170.079 616.908V622.5H166.671V610.092ZM176.095 610.092H179.311V611.772H179.359C179.807 611.132 180.343 610.636 180.967 610.284C181.607 609.932 182.335 609.756 183.151 609.756C183.935 609.756 184.647 609.908 185.287 610.212C185.943 610.516 186.439 611.052 186.775 611.82C187.143 611.276 187.639 610.796 188.263 610.38C188.903 609.964 189.655 609.756 190.519 609.756C191.175 609.756 191.783 609.836 192.343 609.996C192.903 610.156 193.383 610.412 193.783 610.764C194.183 611.116 194.495 611.58 194.719 612.156C194.943 612.716 195.055 613.396 195.055 614.196V622.5H191.647V615.468C191.647 615.052 191.631 614.66 191.599 614.292C191.567 613.924 191.479 613.604 191.335 613.332C191.191 613.06 190.975 612.844 190.687 612.684C190.415 612.524 190.039 612.444 189.559 612.444C189.079 612.444 188.687 612.54 188.383 612.732C188.095 612.908 187.863 613.148 187.687 613.452C187.527 613.74 187.415 614.076 187.351 614.46C187.303 614.828 187.279 615.204 187.279 615.588V622.5H183.871V615.54C183.871 615.172 183.863 614.812 183.847 614.46C183.831 614.092 183.759 613.756 183.631 613.452C183.519 613.148 183.319 612.908 183.031 612.732C182.759 612.54 182.351 612.444 181.807 612.444C181.647 612.444 181.431 612.484 181.159 612.564C180.903 612.628 180.647 612.764 180.391 612.972C180.151 613.164 179.943 613.452 179.767 613.836C179.591 614.204 179.503 614.692 179.503 615.3V622.5H176.095V610.092Z" fill="black"/>
<path d="M140.436 725.94C140.756 725.508 141.012 724.972 141.204 724.332C141.396 723.692 141.492 722.916 141.492 722.004C141.492 721.252 141.404 720.524 141.228 719.82C141.068 719.116 140.804 718.492 140.436 717.948C140.068 717.388 139.588 716.948 138.996 716.628C138.404 716.292 137.684 716.124 136.836 716.124C135.988 716.124 135.268 716.292 134.676 716.628C134.084 716.948 133.604 717.388 133.236 717.948C132.868 718.492 132.596 719.116 132.42 719.82C132.26 720.524 132.18 721.252 132.18 722.004C132.18 722.724 132.26 723.428 132.42 724.116C132.596 724.788 132.868 725.396 133.236 725.94C133.604 726.484 134.084 726.924 134.676 727.26C135.268 727.58 135.988 727.74 136.836 727.74C137.236 727.74 137.54 727.724 137.748 727.692C137.956 727.66 138.156 727.596 138.348 727.5L136.74 726.036L138.492 724.164L140.436 725.94ZM140.988 729.9C139.852 730.556 138.468 730.884 136.836 730.884C135.524 730.884 134.34 730.66 133.284 730.212C132.244 729.748 131.364 729.116 130.644 728.316C129.924 727.516 129.372 726.58 128.988 725.508C128.604 724.42 128.412 723.252 128.412 722.004C128.412 720.724 128.604 719.54 128.988 718.452C129.372 717.348 129.924 716.388 130.644 715.572C131.364 714.756 132.244 714.116 133.284 713.652C134.34 713.188 135.524 712.956 136.836 712.956C138.164 712.956 139.348 713.188 140.388 713.652C141.428 714.116 142.308 714.756 143.028 715.572C143.748 716.388 144.3 717.348 144.684 718.452C145.068 719.54 145.26 720.724 145.26 722.004C145.26 723.252 145.068 724.412 144.684 725.484C144.3 726.556 143.748 727.5 143.028 728.316L145.164 730.26L143.412 732.084L140.988 729.9ZM159.116 730.5H155.876V728.772H155.804C155.372 729.492 154.812 730.012 154.124 730.332C153.436 730.652 152.732 730.812 152.012 730.812C151.1 730.812 150.348 730.692 149.756 730.452C149.18 730.212 148.724 729.876 148.388 729.444C148.052 728.996 147.812 728.46 147.668 727.836C147.54 727.196 147.476 726.492 147.476 725.724V718.092H150.884V725.1C150.884 726.124 151.044 726.892 151.364 727.404C151.684 727.9 152.252 728.148 153.068 728.148C153.996 728.148 154.668 727.876 155.084 727.332C155.5 726.772 155.708 725.86 155.708 724.596V718.092H159.116V730.5ZM161.558 721.908C161.606 721.108 161.806 720.444 162.158 719.916C162.51 719.388 162.958 718.964 163.502 718.644C164.046 718.324 164.654 718.1 165.326 717.972C166.014 717.828 166.702 717.756 167.39 717.756C168.014 717.756 168.646 717.804 169.286 717.9C169.926 717.98 170.51 718.148 171.038 718.404C171.566 718.66 171.998 719.02 172.334 719.484C172.67 719.932 172.838 720.532 172.838 721.284V727.74C172.838 728.3 172.87 728.836 172.934 729.348C172.998 729.86 173.11 730.244 173.27 730.5H169.814C169.75 730.308 169.694 730.116 169.646 729.924C169.614 729.716 169.59 729.508 169.574 729.3C169.03 729.86 168.39 730.252 167.654 730.476C166.918 730.7 166.166 730.812 165.398 730.812C164.806 730.812 164.254 730.74 163.742 730.596C163.23 730.452 162.782 730.228 162.398 729.924C162.014 729.62 161.71 729.236 161.486 728.772C161.278 728.308 161.174 727.756 161.174 727.116C161.174 726.412 161.294 725.836 161.534 725.388C161.79 724.924 162.11 724.556 162.494 724.284C162.894 724.012 163.342 723.812 163.838 723.684C164.35 723.54 164.862 723.428 165.374 723.348C165.886 723.268 166.39 723.204 166.886 723.156C167.382 723.108 167.822 723.036 168.206 722.94C168.59 722.844 168.894 722.708 169.118 722.532C169.342 722.34 169.446 722.068 169.43 721.716C169.43 721.348 169.366 721.06 169.238 720.852C169.126 720.628 168.966 720.46 168.758 720.348C168.566 720.22 168.334 720.14 168.062 720.108C167.806 720.06 167.526 720.036 167.222 720.036C166.55 720.036 166.022 720.18 165.638 720.468C165.254 720.756 165.03 721.236 164.966 721.908H161.558ZM169.43 724.428C169.286 724.556 169.102 724.66 168.878 724.74C168.67 724.804 168.438 724.86 168.182 724.908C167.942 724.956 167.686 724.996 167.414 725.028C167.142 725.06 166.87 725.1 166.598 725.148C166.342 725.196 166.086 725.26 165.83 725.34C165.59 725.42 165.374 725.532 165.182 725.676C165.006 725.804 164.862 725.972 164.75 726.18C164.638 726.388 164.582 726.652 164.582 726.972C164.582 727.276 164.638 727.532 164.75 727.74C164.862 727.948 165.014 728.116 165.206 728.244C165.398 728.356 165.622 728.436 165.878 728.484C166.134 728.532 166.398 728.556 166.67 728.556C167.342 728.556 167.862 728.444 168.23 728.22C168.598 727.996 168.87 727.732 169.046 727.428C169.222 727.108 169.326 726.788 169.358 726.468C169.406 726.148 169.43 725.892 169.43 725.7V724.428ZM175.484 718.092H178.724V719.82H178.796C179.228 719.1 179.788 718.58 180.476 718.26C181.164 717.924 181.868 717.756 182.588 717.756C183.5 717.756 184.244 717.884 184.82 718.14C185.412 718.38 185.876 718.724 186.212 719.172C186.548 719.604 186.78 720.14 186.908 720.78C187.052 721.404 187.124 722.1 187.124 722.868V730.5H183.716V723.492C183.716 722.468 183.556 721.708 183.236 721.212C182.916 720.7 182.348 720.444 181.532 720.444C180.604 720.444 179.932 720.724 179.516 721.284C179.1 721.828 178.892 722.732 178.892 723.996V730.5H175.484V718.092ZM194.03 718.092H196.526V720.372H194.03V726.516C194.03 727.092 194.126 727.476 194.318 727.668C194.51 727.86 194.894 727.956 195.47 727.956C195.662 727.956 195.846 727.948 196.022 727.932C196.198 727.916 196.366 727.892 196.526 727.86V730.5C196.238 730.548 195.918 730.58 195.566 730.596C195.214 730.612 194.87 730.62 194.534 730.62C194.006 730.62 193.502 730.58 193.022 730.5C192.558 730.436 192.142 730.3 191.774 730.092C191.422 729.884 191.142 729.588 190.934 729.204C190.726 728.82 190.622 728.316 190.622 727.692V720.372H188.558V718.092H190.622V714.372H194.03V718.092ZM206.596 722.46C206.372 721.036 205.532 720.324 204.076 720.324C203.532 720.324 203.076 720.452 202.708 720.708C202.34 720.948 202.036 721.268 201.796 721.668C201.572 722.052 201.412 722.484 201.316 722.964C201.22 723.428 201.172 723.892 201.172 724.356C201.172 724.804 201.22 725.26 201.316 725.724C201.412 726.188 201.564 726.612 201.772 726.996C201.996 727.364 202.292 727.668 202.66 727.908C203.028 728.148 203.476 728.268 204.004 728.268C204.82 728.268 205.444 728.044 205.876 727.596C206.324 727.132 206.604 726.516 206.716 725.748H210.004C209.78 727.396 209.14 728.652 208.084 729.516C207.028 730.38 205.676 730.812 204.028 730.812C203.1 730.812 202.244 730.66 201.46 730.356C200.692 730.036 200.036 729.596 199.492 729.036C198.948 728.476 198.524 727.812 198.22 727.044C197.916 726.26 197.764 725.404 197.764 724.476C197.764 723.516 197.9 722.628 198.172 721.812C198.46 720.98 198.876 720.268 199.42 719.676C199.964 719.068 200.628 718.596 201.412 718.26C202.196 717.924 203.092 717.756 204.1 717.756C204.836 717.756 205.54 717.852 206.212 718.044C206.9 718.236 207.508 718.532 208.036 718.932C208.58 719.316 209.02 719.804 209.356 720.396C209.692 720.972 209.884 721.66 209.932 722.46H206.596ZM211.785 721.908C211.833 721.108 212.033 720.444 212.385 719.916C212.737 719.388 213.185 718.964 213.729 718.644C214.273 718.324 214.881 718.1 215.553 717.972C216.241 717.828 216.929 717.756 217.617 717.756C218.241 717.756 218.873 717.804 219.513 717.9C220.153 717.98 220.737 718.148 221.265 718.404C221.793 718.66 222.225 719.02 222.561 719.484C222.897 719.932 223.065 720.532 223.065 721.284V727.74C223.065 728.3 223.097 728.836 223.161 729.348C223.225 729.86 223.337 730.244 223.497 730.5H220.041C219.977 730.308 219.921 730.116 219.873 729.924C219.841 729.716 219.817 729.508 219.801 729.3C219.257 729.86 218.617 730.252 217.881 730.476C217.145 730.7 216.393 730.812 215.625 730.812C215.033 730.812 214.481 730.74 213.969 730.596C213.457 730.452 213.009 730.228 212.625 729.924C212.241 729.62 211.937 729.236 211.713 728.772C211.505 728.308 211.401 727.756 211.401 727.116C211.401 726.412 211.521 725.836 211.761 725.388C212.017 724.924 212.337 724.556 212.721 724.284C213.121 724.012 213.569 723.812 214.065 723.684C214.577 723.54 215.089 723.428 215.601 723.348C216.113 723.268 216.617 723.204 217.113 723.156C217.609 723.108 218.049 723.036 218.433 722.94C218.817 722.844 219.121 722.708 219.345 722.532C219.569 722.34 219.673 722.068 219.657 721.716C219.657 721.348 219.593 721.06 219.465 720.852C219.353 720.628 219.193 720.46 218.985 720.348C218.793 720.22 218.561 720.14 218.289 720.108C218.033 720.06 217.753 720.036 217.449 720.036C216.777 720.036 216.249 720.18 215.865 720.468C215.481 720.756 215.257 721.236 215.193 721.908H211.785ZM219.657 724.428C219.513 724.556 219.329 724.66 219.105 724.74C218.897 724.804 218.665 724.86 218.409 724.908C218.169 724.956 217.913 724.996 217.641 725.028C217.369 725.06 217.097 725.1 216.825 725.148C216.569 725.196 216.313 725.26 216.057 725.34C215.817 725.42 215.601 725.532 215.409 725.676C215.233 725.804 215.089 725.972 214.977 726.18C214.865 726.388 214.809 726.652 214.809 726.972C214.809 727.276 214.865 727.532 214.977 727.74C215.089 727.948 215.241 728.116 215.433 728.244C215.625 728.356 215.849 728.436 216.105 728.484C216.361 728.532 216.625 728.556 216.897 728.556C217.569 728.556 218.089 728.444 218.457 728.22C218.825 727.996 219.097 727.732 219.273 727.428C219.449 727.108 219.553 726.788 219.585 726.468C219.633 726.148 219.657 725.892 219.657 725.7V724.428ZM228.35 726.468C228.35 726.836 228.422 727.156 228.566 727.428C228.726 727.684 228.926 727.9 229.166 728.076C229.406 728.236 229.678 728.356 229.982 728.436C230.302 728.516 230.63 728.556 230.966 728.556C231.206 728.556 231.454 728.532 231.71 728.484C231.982 728.42 232.222 728.332 232.43 728.22C232.654 728.092 232.838 727.932 232.982 727.74C233.126 727.532 233.198 727.276 233.198 726.972C233.198 726.46 232.854 726.076 232.166 725.82C231.494 725.564 230.55 725.308 229.334 725.052C228.838 724.94 228.35 724.812 227.87 724.668C227.406 724.508 226.99 724.308 226.622 724.068C226.254 723.812 225.958 723.5 225.734 723.132C225.51 722.748 225.398 722.284 225.398 721.74C225.398 720.94 225.55 720.284 225.854 719.772C226.174 719.26 226.59 718.86 227.102 718.572C227.614 718.268 228.19 718.06 228.83 717.948C229.47 717.82 230.126 717.756 230.798 717.756C231.47 717.756 232.118 717.82 232.742 717.948C233.382 718.076 233.95 718.292 234.446 718.596C234.942 718.9 235.35 719.308 235.67 719.82C236.006 720.316 236.206 720.948 236.27 721.716H233.03C232.982 721.06 232.734 720.62 232.286 720.396C231.838 720.156 231.31 720.036 230.702 720.036C230.51 720.036 230.302 720.052 230.078 720.084C229.854 720.1 229.646 720.148 229.454 720.228C229.278 720.308 229.126 720.428 228.998 720.588C228.87 720.732 228.806 720.932 228.806 721.188C228.806 721.492 228.918 721.74 229.142 721.932C229.366 722.124 229.654 722.284 230.006 722.412C230.374 722.524 230.79 722.628 231.254 722.724C231.718 722.82 232.19 722.924 232.67 723.036C233.166 723.148 233.646 723.284 234.11 723.444C234.59 723.604 235.014 723.82 235.382 724.092C235.75 724.348 236.046 724.676 236.27 725.076C236.494 725.46 236.606 725.94 236.606 726.516C236.606 727.332 236.438 728.02 236.102 728.58C235.782 729.124 235.358 729.564 234.83 729.9C234.302 730.236 233.694 730.468 233.006 730.596C232.334 730.74 231.646 730.812 230.942 730.812C230.222 730.812 229.518 730.74 228.83 730.596C228.142 730.452 227.526 730.212 226.982 729.876C226.454 729.54 226.014 729.1 225.662 728.556C225.326 727.996 225.142 727.3 225.11 726.468H228.35ZM242.921 718.092H245.417V720.372H242.921V726.516C242.921 727.092 243.017 727.476 243.209 727.668C243.401 727.86 243.785 727.956 244.361 727.956C244.553 727.956 244.737 727.948 244.913 727.932C245.089 727.916 245.257 727.892 245.417 727.86V730.5C245.129 730.548 244.809 730.58 244.457 730.596C244.105 730.612 243.761 730.62 243.425 730.62C242.897 730.62 242.393 730.58 241.913 730.5C241.449 730.436 241.033 730.3 240.665 730.092C240.313 729.884 240.033 729.588 239.825 729.204C239.617 728.82 239.513 728.316 239.513 727.692V720.372H237.449V718.092H239.513V714.372H242.921V718.092Z" fill="black"/>
<path d="M248.363 841.33L250.578 838.281L261.878 846.491L266.788 839.734L269.351 841.597L262.227 851.402L248.363 841.33ZM260.845 828.927L258.842 831.684L256.57 830.034L258.574 827.277L260.845 828.927ZM260.395 832.813L262.399 830.056L272.437 837.349L270.434 840.106L260.395 832.813ZM266.515 824.39L267.982 822.37L269.827 823.71L268.36 825.73L273.33 829.341C273.796 829.68 274.163 829.828 274.432 829.785C274.7 829.743 275.003 829.489 275.342 829.023C275.455 828.867 275.556 828.714 275.647 828.562C275.737 828.41 275.817 828.26 275.885 828.112L278.02 829.664C277.89 829.925 277.728 830.202 277.534 830.497C277.34 830.791 277.144 831.074 276.947 831.346C276.636 831.773 276.308 832.157 275.961 832.498C275.636 832.836 275.282 833.093 274.897 833.268C274.522 833.431 274.118 833.483 273.685 833.426C273.252 833.368 272.783 833.156 272.278 832.789L266.356 828.487L265.143 830.157L263.299 828.817L264.512 827.147L261.502 824.96L263.506 822.203L266.515 824.39ZM265.322 817.988L267.537 814.94L278.837 823.15L283.746 816.393L286.309 818.255L279.185 828.06L265.322 817.988ZM280.3 811.908C279.681 811.399 279.261 810.847 279.041 810.252C278.821 809.657 278.741 809.045 278.802 808.417C278.863 807.789 279.039 807.165 279.331 806.547C279.618 805.905 279.965 805.306 280.369 804.75C280.736 804.245 281.146 803.762 281.6 803.301C282.041 802.83 282.52 802.456 283.037 802.179C283.555 801.903 284.1 801.765 284.673 801.766C285.233 801.757 285.817 801.974 286.425 802.416L291.648 806.211C292.101 806.54 292.554 806.829 293.006 807.078C293.458 807.327 293.834 807.462 294.135 807.483L292.104 810.279C291.911 810.218 291.723 810.151 291.539 810.077C291.352 809.98 291.17 809.878 290.992 809.768C291.125 810.538 291.066 811.286 290.815 812.013C290.563 812.74 290.212 813.414 289.761 814.035C289.413 814.514 289.03 814.919 288.612 815.248C288.195 815.578 287.751 815.809 287.279 815.941C286.807 816.073 286.318 816.093 285.811 816.001C285.313 815.897 284.805 815.656 284.288 815.28C283.718 814.866 283.323 814.431 283.101 813.973C282.876 813.494 282.767 813.018 282.772 812.548C282.787 812.064 282.889 811.584 283.077 811.108C283.261 810.609 283.472 810.129 283.708 809.668C283.944 809.206 284.189 808.761 284.441 808.332C284.694 807.902 284.894 807.504 285.043 807.137C285.191 806.77 285.259 806.444 285.249 806.159C285.225 805.865 285.066 805.621 284.772 805.427C284.474 805.211 284.203 805.093 283.96 805.074C283.713 805.033 283.483 805.064 283.27 805.167C283.054 805.247 282.853 805.387 282.667 805.589C282.477 805.767 282.293 805.98 282.115 806.226C281.72 806.769 281.526 807.281 281.533 807.761C281.54 808.241 281.797 808.705 282.303 809.151L280.3 811.908ZM286.966 807.021C286.985 807.213 286.961 807.423 286.894 807.651C286.823 807.857 286.732 808.078 286.621 808.313C286.518 808.535 286.4 808.766 286.266 809.005C286.132 809.244 286.005 809.487 285.884 809.735C285.772 809.971 285.673 810.215 285.588 810.47C285.511 810.711 285.475 810.951 285.479 811.191C285.479 811.409 285.53 811.624 285.632 811.837C285.735 812.05 285.915 812.25 286.174 812.439C286.42 812.617 286.66 812.722 286.894 812.754C287.129 812.786 287.354 812.761 287.57 812.681C287.774 812.592 287.97 812.458 288.159 812.279C288.349 812.1 288.523 811.9 288.683 811.68C289.078 811.137 289.293 810.65 289.328 810.221C289.363 809.791 289.31 809.416 289.167 809.095C289.012 808.765 288.814 808.492 288.574 808.278C288.343 808.051 288.15 807.882 287.995 807.769L286.966 807.021ZM295.773 794.695C295.346 794.384 294.905 794.133 294.451 793.942C293.997 793.75 293.551 793.643 293.112 793.621C292.673 793.599 292.261 793.676 291.877 793.851C291.489 794.004 291.144 794.288 290.843 794.702C290.552 795.103 290.388 795.519 290.353 795.948C290.305 796.368 290.36 796.783 290.516 797.194C290.673 797.604 290.912 797.996 291.235 798.369C291.557 798.741 291.932 799.083 292.359 799.393C292.774 799.694 293.208 799.94 293.662 800.132C294.116 800.324 294.563 800.43 295.001 800.453C295.44 800.475 295.858 800.403 296.256 800.237C296.64 800.061 296.978 799.773 297.27 799.372C297.571 798.957 297.741 798.547 297.779 798.14C297.814 797.71 297.754 797.29 297.597 796.88C297.44 796.469 297.201 796.078 296.878 795.705C296.556 795.332 296.187 794.995 295.773 794.695ZM281.573 795.621L283.576 792.864L288.624 796.531L288.653 796.492C288.379 795.78 288.333 795.054 288.514 794.315C288.691 793.554 289.005 792.863 289.457 792.241C289.824 791.737 290.289 791.313 290.854 790.972C291.418 790.631 292.055 790.421 292.764 790.343C293.483 790.252 294.268 790.328 295.12 790.571C295.959 790.805 296.838 791.256 297.757 791.923C298.676 792.591 299.383 793.292 299.877 794.027C300.359 794.753 300.667 795.472 300.803 796.183C300.948 796.882 300.945 797.552 300.795 798.195C300.645 798.837 300.386 799.411 300.019 799.915C299.483 800.653 298.887 801.229 298.231 801.642C297.575 802.055 296.86 802.209 296.087 802.102L296.059 802.141L297.341 803.072L295.436 805.693L281.573 795.621Z" fill="black"/>
<path d="M91.1001 1302.58C90.0233 1302.78 89.0634 1302.74 88.2204 1302.46C87.3879 1302.16 86.6615 1301.74 86.041 1301.18C85.0625 1300.31 84.3287 1299.35 83.8395 1298.32C83.373 1297.28 83.1377 1296.22 83.1336 1295.14C83.1296 1294.07 83.3414 1293 83.7692 1291.95C84.2076 1290.88 84.8425 1289.88 85.6738 1288.95C86.5265 1288 87.4584 1287.24 88.4696 1286.68C89.4914 1286.12 90.5426 1285.77 91.6232 1285.64C92.7038 1285.51 93.7864 1285.62 94.8712 1285.97C95.9679 1286.32 97.0054 1286.94 97.9839 1287.81C98.6402 1288.4 99.1821 1289.07 99.6095 1289.81C100.059 1290.56 100.359 1291.34 100.507 1292.16C100.667 1292.99 100.657 1293.83 100.479 1294.68C100.3 1295.52 99.9213 1296.34 99.3427 1297.14L96.6578 1294.74C97.1302 1293.87 97.2877 1293.05 97.1301 1292.26C96.9726 1291.48 96.5537 1290.78 95.8735 1290.18C95.2411 1289.61 94.5922 1289.26 93.9268 1289.11C93.2722 1288.96 92.6211 1288.97 91.9735 1289.14C91.3367 1289.3 90.7182 1289.58 90.1179 1289.99C89.5296 1290.41 88.985 1290.9 88.484 1291.46C88.0044 1292 87.5951 1292.58 87.2561 1293.2C86.9397 1293.81 86.7375 1294.45 86.6496 1295.1C86.5616 1295.75 86.6265 1296.4 86.8442 1297.04C87.0725 1297.68 87.5029 1298.27 88.1354 1298.84C89.0662 1299.67 89.99 1300.08 90.9068 1300.06C91.8463 1300.04 92.7575 1299.62 93.6404 1298.8L90.8123 1296.27L92.6829 1294.18L98.0527 1298.98L91.8814 1305.89L90.0914 1304.29L91.1001 1302.58ZM105.369 1294.96L107.911 1297.23L96.4956 1310.01L93.9539 1307.74L105.369 1294.96ZM104.113 1305.29C104.682 1304.73 105.274 1304.36 105.888 1304.21C106.502 1304.05 107.119 1304.03 107.737 1304.15C108.356 1304.28 108.959 1304.51 109.545 1304.87C110.155 1305.22 110.716 1305.62 111.229 1306.08C111.694 1306.5 112.133 1306.95 112.547 1307.45C112.971 1307.94 113.295 1308.45 113.518 1308.99C113.741 1309.54 113.823 1310.09 113.765 1310.66C113.717 1311.22 113.443 1311.78 112.942 1312.34L108.641 1317.16C108.268 1317.57 107.935 1317.99 107.641 1318.42C107.348 1318.84 107.176 1319.2 107.124 1319.5L104.547 1317.2C104.627 1317.01 104.713 1316.83 104.805 1316.66C104.92 1316.48 105.041 1316.31 105.167 1316.14C104.389 1316.2 103.65 1316.07 102.952 1315.74C102.254 1315.42 101.618 1315 101.046 1314.49C100.604 1314.1 100.24 1313.67 99.9545 1313.23C99.6686 1312.78 99.4837 1312.31 99.3998 1311.83C99.3159 1311.35 99.345 1310.86 99.487 1310.36C99.641 1309.88 99.9312 1309.4 100.358 1308.92C100.826 1308.39 101.3 1308.05 101.777 1307.87C102.277 1307.7 102.761 1307.63 103.229 1307.69C103.708 1307.75 104.175 1307.9 104.631 1308.13C105.108 1308.37 105.565 1308.63 106 1308.91C106.435 1309.19 106.854 1309.48 107.256 1309.77C107.657 1310.07 108.034 1310.31 108.384 1310.49C108.734 1310.67 109.052 1310.78 109.336 1310.79C109.631 1310.8 109.89 1310.67 110.112 1310.39C110.357 1310.12 110.501 1309.86 110.545 1309.62C110.61 1309.38 110.603 1309.15 110.522 1308.92C110.464 1308.7 110.345 1308.49 110.163 1308.28C110.004 1308.08 109.811 1307.87 109.585 1307.67C109.083 1307.22 108.594 1306.98 108.115 1306.94C107.637 1306.89 107.15 1307.1 106.655 1307.56L104.113 1305.29ZM108.306 1312.41C108.113 1312.41 107.906 1312.37 107.686 1312.28C107.488 1312.19 107.278 1312.08 107.055 1311.94C106.844 1311.82 106.626 1311.68 106.402 1311.52C106.178 1311.36 105.949 1311.21 105.714 1311.07C105.491 1310.93 105.257 1310.81 105.013 1310.7C104.781 1310.6 104.545 1310.54 104.306 1310.52C104.089 1310.49 103.87 1310.52 103.648 1310.6C103.426 1310.68 103.208 1310.84 102.995 1311.08C102.793 1311.31 102.664 1311.54 102.609 1311.77C102.554 1312 102.555 1312.22 102.613 1312.45C102.682 1312.66 102.796 1312.87 102.954 1313.07C103.113 1313.28 103.294 1313.47 103.497 1313.66C103.998 1314.1 104.461 1314.37 104.884 1314.44C105.308 1314.52 105.687 1314.51 106.021 1314.4C106.365 1314.28 106.656 1314.11 106.893 1313.89C107.142 1313.68 107.33 1313.51 107.458 1313.36L108.306 1312.41ZM113.43 1319.73C113.185 1320 113.025 1320.29 112.952 1320.59C112.9 1320.88 112.906 1321.18 112.967 1321.47C113.04 1321.75 113.163 1322.02 113.336 1322.28C113.522 1322.56 113.74 1322.8 113.99 1323.03C114.169 1323.19 114.37 1323.33 114.593 1323.47C114.838 1323.6 115.076 1323.7 115.306 1323.75C115.558 1323.81 115.802 1323.81 116.037 1323.76C116.283 1323.7 116.507 1323.56 116.71 1323.33C117.051 1322.95 117.05 1322.44 116.708 1321.79C116.377 1321.15 115.844 1320.33 115.107 1319.33C114.812 1318.91 114.533 1318.49 114.271 1318.07C114.032 1317.64 113.855 1317.21 113.74 1316.79C113.636 1316.35 113.623 1315.92 113.701 1315.5C113.79 1315.06 114.016 1314.64 114.378 1314.23C114.911 1313.64 115.461 1313.25 116.029 1313.07C116.609 1312.9 117.186 1312.88 117.759 1313.01C118.344 1313.12 118.912 1313.35 119.464 1313.69C120.026 1314.02 120.558 1314.41 121.059 1314.86C121.561 1315.31 122.001 1315.79 122.381 1316.3C122.773 1316.82 123.053 1317.36 123.221 1317.92C123.388 1318.47 123.42 1319.05 123.318 1319.65C123.238 1320.24 122.966 1320.84 122.502 1321.46L120.086 1319.3C120.487 1318.78 120.595 1318.29 120.41 1317.82C120.236 1317.34 119.922 1316.9 119.469 1316.5C119.326 1316.37 119.16 1316.24 118.972 1316.12C118.794 1315.98 118.607 1315.88 118.41 1315.81C118.226 1315.75 118.032 1315.74 117.83 1315.77C117.639 1315.8 117.458 1315.9 117.287 1316.09C117.085 1316.32 117.003 1316.58 117.042 1316.87C117.082 1317.16 117.19 1317.48 117.367 1317.81C117.567 1318.13 117.808 1318.49 118.09 1318.87C118.372 1319.25 118.655 1319.64 118.938 1320.05C119.234 1320.46 119.501 1320.88 119.74 1321.31C119.992 1321.75 120.164 1322.19 120.257 1322.64C120.361 1323.08 120.364 1323.52 120.264 1323.97C120.175 1324.4 119.939 1324.83 119.555 1325.26C119.012 1325.87 118.428 1326.27 117.805 1326.47C117.204 1326.66 116.594 1326.7 115.977 1326.6C115.359 1326.5 114.751 1326.27 114.153 1325.91C113.555 1325.57 112.994 1325.16 112.469 1324.69C111.932 1324.21 111.455 1323.69 111.038 1323.13C110.621 1322.56 110.321 1321.97 110.14 1321.36C109.97 1320.76 109.935 1320.13 110.034 1319.49C110.157 1318.85 110.483 1318.21 111.014 1317.57L113.43 1319.73ZM123.044 1328.31C122.799 1328.59 122.639 1328.88 122.566 1329.17C122.514 1329.47 122.52 1329.77 122.581 1330.06C122.654 1330.34 122.777 1330.61 122.95 1330.87C123.135 1331.14 123.353 1331.39 123.604 1331.61C123.783 1331.77 123.984 1331.92 124.207 1332.06C124.452 1332.19 124.69 1332.28 124.92 1332.34C125.172 1332.39 125.416 1332.4 125.651 1332.35C125.897 1332.29 126.121 1332.15 126.324 1331.92C126.665 1331.54 126.664 1331.02 126.322 1330.37C125.991 1329.73 125.457 1328.92 124.721 1327.91C124.426 1327.5 124.147 1327.08 123.885 1326.65C123.646 1326.22 123.469 1325.8 123.354 1325.37C123.25 1324.94 123.237 1324.51 123.315 1324.08C123.404 1323.65 123.63 1323.23 123.992 1322.82C124.525 1322.23 125.075 1321.84 125.643 1321.66C126.223 1321.49 126.8 1321.47 127.373 1321.59C127.958 1321.71 128.526 1321.94 129.078 1322.28C129.64 1322.61 130.172 1323 130.673 1323.45C131.174 1323.9 131.615 1324.38 131.995 1324.89C132.387 1325.41 132.667 1325.95 132.834 1326.5C133.002 1327.06 133.034 1327.64 132.932 1328.23C132.852 1328.83 132.58 1329.43 132.116 1330.05L129.7 1327.89C130.101 1327.37 130.209 1326.87 130.024 1326.41C129.85 1325.93 129.536 1325.49 129.083 1325.08C128.94 1324.96 128.774 1324.83 128.586 1324.7C128.408 1324.57 128.221 1324.46 128.024 1324.4C127.84 1324.34 127.646 1324.33 127.444 1324.36C127.253 1324.38 127.072 1324.49 126.901 1324.68C126.699 1324.91 126.617 1325.17 126.656 1325.46C126.696 1325.75 126.804 1326.06 126.981 1326.39C127.181 1326.72 127.422 1327.08 127.704 1327.46C127.986 1327.84 128.269 1328.23 128.552 1328.63C128.847 1329.05 129.115 1329.47 129.354 1329.9C129.606 1330.34 129.778 1330.78 129.871 1331.23C129.975 1331.66 129.977 1332.11 129.878 1332.55C129.789 1332.99 129.553 1333.42 129.169 1333.85C128.626 1334.46 128.042 1334.86 127.419 1335.05C126.817 1335.25 126.208 1335.29 125.591 1335.19C124.973 1335.09 124.365 1334.86 123.767 1334.5C123.169 1334.15 122.608 1333.75 122.083 1333.28C121.546 1332.8 121.069 1332.28 120.652 1331.71C120.235 1331.15 119.935 1330.56 119.753 1329.95C119.583 1329.34 119.548 1328.72 119.648 1328.08C119.771 1327.44 120.097 1326.8 120.628 1326.16L123.044 1328.31ZM138.912 1339.59C139.263 1339.2 139.557 1338.78 139.794 1338.35C140.03 1337.92 140.181 1337.49 140.247 1337.05C140.313 1336.62 140.279 1336.2 140.143 1335.8C140.029 1335.4 139.782 1335.03 139.4 1334.69C139.03 1334.36 138.633 1334.15 138.209 1334.07C137.796 1333.98 137.378 1334 136.954 1334.11C136.53 1334.22 136.116 1334.42 135.713 1334.71C135.309 1334.99 134.932 1335.33 134.58 1335.72C134.239 1336.1 133.95 1336.51 133.714 1336.94C133.478 1337.38 133.327 1337.81 133.261 1338.24C133.194 1338.68 133.224 1339.1 133.349 1339.51C133.485 1339.91 133.738 1340.28 134.108 1340.61C134.49 1340.95 134.881 1341.16 135.282 1341.24C135.706 1341.32 136.13 1341.3 136.554 1341.19C136.978 1341.07 137.392 1340.87 137.795 1340.59C138.198 1340.31 138.571 1339.97 138.912 1339.59ZM139.418 1325.37L141.96 1327.64L137.803 1332.29L137.839 1332.33C138.576 1332.13 139.302 1332.15 140.019 1332.41C140.759 1332.66 141.415 1333.04 141.988 1333.55C142.453 1333.97 142.827 1334.48 143.11 1335.07C143.393 1335.67 143.538 1336.32 143.544 1337.04C143.562 1337.76 143.407 1338.53 143.08 1339.36C142.763 1340.17 142.226 1341 141.469 1341.84C140.713 1342.69 139.944 1343.32 139.163 1343.74C138.392 1344.15 137.647 1344.38 136.925 1344.45C136.215 1344.52 135.548 1344.45 134.924 1344.24C134.3 1344.02 133.756 1343.71 133.29 1343.29C132.61 1342.68 132.097 1342.03 131.752 1341.34C131.407 1340.64 131.327 1339.92 131.51 1339.16L131.475 1339.13L130.419 1340.31L128.003 1338.15L139.418 1325.37ZM147.211 1338.67L149.628 1340.83L148.093 1342.55L148.128 1342.58C148.504 1342.4 148.899 1342.28 149.315 1342.22C149.742 1342.15 150.161 1342.15 150.573 1342.22C150.995 1342.28 151.398 1342.39 151.782 1342.56C152.165 1342.73 152.518 1342.96 152.841 1343.25C153.008 1343.4 153.166 1343.59 153.315 1343.83L151.205 1346.2C151.107 1346.07 150.98 1345.92 150.823 1345.76C150.678 1345.59 150.527 1345.43 150.372 1345.29C149.907 1344.88 149.444 1344.6 148.983 1344.47C148.522 1344.34 148.068 1344.32 147.62 1344.41C147.194 1344.5 146.78 1344.69 146.377 1344.97C145.973 1345.26 145.585 1345.61 145.212 1346.02L141.487 1350.19L138.945 1347.92L147.211 1338.67ZM156.837 1353.8C157.293 1353.05 157.515 1352.37 157.504 1351.76C157.504 1351.16 157.193 1350.58 156.573 1350.03C156.167 1349.66 155.763 1349.43 155.361 1349.33C154.981 1349.23 154.617 1349.2 154.269 1349.25C153.932 1349.32 153.627 1349.43 153.353 1349.59C153.091 1349.77 152.874 1349.94 152.702 1350.11L156.837 1353.8ZM151.263 1351.72C150.564 1352.57 150.239 1353.36 150.291 1354.07C150.342 1354.78 150.726 1355.45 151.442 1356.09C151.955 1356.55 152.509 1356.82 153.102 1356.9C153.707 1356.97 154.179 1356.9 154.518 1356.69L156.755 1358.68C155.406 1359.47 154.148 1359.78 152.982 1359.59C151.816 1359.41 150.708 1358.85 149.658 1357.91C148.93 1357.26 148.375 1356.56 147.993 1355.81C147.621 1355.05 147.424 1354.27 147.402 1353.48C147.38 1352.69 147.522 1351.9 147.829 1351.1C148.147 1350.31 148.626 1349.56 149.265 1348.84C149.883 1348.15 150.572 1347.6 151.332 1347.21C152.092 1346.82 152.872 1346.59 153.673 1346.53C154.485 1346.47 155.29 1346.56 156.086 1346.82C156.895 1347.09 157.651 1347.54 158.355 1348.17C159.143 1348.88 159.69 1349.65 159.998 1350.48C160.316 1351.3 160.431 1352.13 160.343 1352.97C160.266 1353.83 160.018 1354.66 159.599 1355.46C159.18 1356.27 158.627 1357.01 157.94 1357.68L151.263 1351.72ZM161.482 1356.53C162.051 1355.97 162.642 1355.61 163.257 1355.45C163.871 1355.29 164.487 1355.27 165.106 1355.39C165.725 1355.52 166.328 1355.76 166.914 1356.11C167.523 1356.46 168.084 1356.86 168.598 1357.32C169.063 1357.74 169.502 1358.19 169.916 1358.69C170.34 1359.18 170.663 1359.69 170.887 1360.24C171.11 1360.78 171.192 1361.33 171.134 1361.9C171.086 1362.46 170.811 1363.02 170.311 1363.58L166.01 1368.4C165.637 1368.82 165.304 1369.24 165.01 1369.66C164.717 1370.09 164.545 1370.45 164.493 1370.74L161.916 1368.44C161.996 1368.26 162.082 1368.08 162.174 1367.9C162.289 1367.72 162.41 1367.55 162.536 1367.39C161.757 1367.44 161.019 1367.31 160.321 1366.98C159.623 1366.66 158.987 1366.24 158.415 1365.73C157.973 1365.34 157.609 1364.92 157.323 1364.47C157.037 1364.02 156.853 1363.55 156.769 1363.07C156.685 1362.59 156.714 1362.1 156.856 1361.61C157.01 1361.12 157.3 1360.64 157.726 1360.16C158.195 1359.64 158.669 1359.29 159.146 1359.11C159.646 1358.94 160.13 1358.88 160.597 1358.93C161.077 1358.99 161.544 1359.14 161.999 1359.38C162.477 1359.61 162.934 1359.87 163.369 1360.15C163.804 1360.43 164.223 1360.72 164.624 1361.01C165.026 1361.31 165.402 1361.55 165.753 1361.73C166.103 1361.92 166.42 1362.02 166.705 1362.04C167 1362.04 167.258 1361.91 167.481 1361.63C167.726 1361.36 167.87 1361.1 167.913 1360.86C167.979 1360.62 167.972 1360.39 167.891 1360.17C167.833 1359.94 167.713 1359.73 167.532 1359.52C167.373 1359.32 167.18 1359.11 166.953 1358.91C166.452 1358.46 165.963 1358.22 165.484 1358.18C165.006 1358.14 164.519 1358.35 164.024 1358.8L161.482 1356.53ZM165.674 1363.66C165.482 1363.66 165.275 1363.61 165.055 1363.52C164.857 1363.43 164.647 1363.32 164.424 1363.18C164.213 1363.06 163.995 1362.92 163.771 1362.76C163.547 1362.6 163.317 1362.45 163.083 1362.31C162.86 1362.17 162.626 1362.05 162.382 1361.94C162.15 1361.84 161.914 1361.78 161.675 1361.76C161.458 1361.74 161.239 1361.77 161.017 1361.85C160.795 1361.93 160.577 1362.09 160.364 1362.33C160.161 1362.55 160.033 1362.78 159.978 1363.01C159.923 1363.24 159.924 1363.47 159.982 1363.69C160.051 1363.9 160.164 1364.11 160.323 1364.32C160.482 1364.52 160.663 1364.72 160.866 1364.9C161.367 1365.35 161.83 1365.61 162.253 1365.69C162.677 1365.76 163.056 1365.75 163.39 1365.64C163.734 1365.52 164.025 1365.35 164.262 1365.13C164.511 1364.92 164.699 1364.75 164.827 1364.61L165.674 1363.66ZM177.792 1359.65L180.334 1361.92L174.21 1368.77L180.388 1368.3L183.395 1370.99L176.867 1371.27L175.523 1380.6L172.445 1377.85L173.596 1371.44L171.764 1371.51L168.918 1374.7L166.377 1372.43L177.792 1359.65ZM187.671 1381.34C188.128 1380.59 188.35 1379.91 188.338 1379.3C188.338 1378.7 188.028 1378.12 187.407 1377.57C187.002 1377.2 186.598 1376.97 186.195 1376.87C185.815 1376.77 185.451 1376.74 185.103 1376.8C184.767 1376.86 184.462 1376.97 184.188 1377.14C183.925 1377.31 183.708 1377.48 183.537 1377.65L187.671 1381.34ZM182.098 1379.26C181.398 1380.12 181.074 1380.9 181.125 1381.61C181.177 1382.32 181.56 1383 182.276 1383.64C182.79 1384.09 183.343 1384.36 183.937 1384.44C184.541 1384.51 185.013 1384.44 185.352 1384.23L187.59 1386.23C186.241 1387.02 184.983 1387.32 183.817 1387.13C182.65 1386.95 181.542 1386.39 180.492 1385.45C179.764 1384.8 179.209 1384.1 178.827 1383.35C178.456 1382.59 178.259 1381.82 178.237 1381.02C178.215 1380.23 178.357 1379.44 178.663 1378.64C178.981 1377.85 179.46 1377.1 180.1 1376.38C180.718 1375.69 181.407 1375.15 182.166 1374.75C182.926 1374.36 183.706 1374.13 184.508 1374.08C185.32 1374.01 186.124 1374.1 186.921 1374.36C187.729 1374.64 188.486 1375.09 189.19 1375.72C189.977 1376.42 190.525 1377.19 190.832 1378.02C191.151 1378.84 191.266 1379.67 191.177 1380.52C191.101 1381.37 190.853 1382.2 190.434 1383.01C190.015 1383.81 189.461 1384.55 188.774 1385.22L182.098 1379.26ZM194.966 1381.33L197.382 1383.48L195.848 1385.2L195.883 1385.23C196.259 1385.05 196.654 1384.94 197.07 1384.88C197.497 1384.81 197.916 1384.81 198.328 1384.88C198.75 1384.93 199.153 1385.04 199.537 1385.22C199.92 1385.39 200.273 1385.62 200.595 1385.9C200.763 1386.05 200.921 1386.25 201.07 1386.49L198.96 1388.85C198.862 1388.72 198.735 1388.57 198.578 1388.41C198.433 1388.24 198.282 1388.08 198.127 1387.95C197.662 1387.53 197.199 1387.26 196.738 1387.12C196.277 1386.99 195.823 1386.97 195.375 1387.06C194.949 1387.16 194.535 1387.34 194.132 1387.63C193.728 1387.91 193.34 1388.26 192.967 1388.68L189.242 1392.85L186.7 1390.58L194.966 1381.33ZM198.312 1395.55C198.067 1395.82 197.908 1396.11 197.834 1396.41C197.783 1396.7 197.788 1397 197.85 1397.29C197.922 1397.57 198.045 1397.84 198.218 1398.1C198.404 1398.37 198.622 1398.62 198.872 1398.85C199.051 1399 199.252 1399.15 199.475 1399.29C199.721 1399.42 199.958 1399.51 200.188 1399.57C200.44 1399.62 200.684 1399.63 200.919 1399.58C201.165 1399.52 201.39 1399.38 201.592 1399.15C201.933 1398.77 201.932 1398.25 201.59 1397.6C201.259 1396.97 200.726 1396.15 199.989 1395.14C199.694 1394.73 199.415 1394.31 199.153 1393.88C198.914 1393.45 198.737 1393.03 198.622 1392.6C198.518 1392.17 198.505 1391.74 198.583 1391.31C198.672 1390.88 198.898 1390.46 199.26 1390.05C199.793 1389.46 200.343 1389.07 200.911 1388.89C201.491 1388.72 202.068 1388.7 202.641 1388.82C203.226 1388.94 203.794 1389.17 204.346 1389.51C204.908 1389.84 205.44 1390.23 205.942 1390.68C206.443 1391.13 206.883 1391.61 207.263 1392.12C207.655 1392.64 207.935 1393.18 208.103 1393.74C208.27 1394.29 208.303 1394.87 208.2 1395.46C208.12 1396.06 207.848 1396.66 207.385 1397.28L204.968 1395.12C205.369 1394.6 205.477 1394.1 205.293 1393.64C205.118 1393.16 204.805 1392.72 204.351 1392.31C204.208 1392.19 204.042 1392.06 203.854 1391.94C203.676 1391.8 203.489 1391.69 203.292 1391.63C203.108 1391.57 202.915 1391.56 202.712 1391.59C202.521 1391.61 202.34 1391.72 202.17 1391.91C201.967 1392.14 201.885 1392.4 201.925 1392.69C201.964 1392.98 202.072 1393.29 202.249 1393.62C202.449 1393.95 202.69 1394.31 202.972 1394.69C203.254 1395.07 203.537 1395.46 203.82 1395.86C204.116 1396.28 204.383 1396.7 204.622 1397.13C204.874 1397.57 205.046 1398.01 205.139 1398.46C205.243 1398.89 205.246 1399.34 205.146 1399.78C205.058 1400.22 204.821 1400.65 204.438 1401.08C203.894 1401.69 203.31 1402.09 202.687 1402.28C202.086 1402.48 201.476 1402.52 200.859 1402.42C200.241 1402.32 199.633 1402.09 199.035 1401.73C198.438 1401.39 197.877 1400.98 197.351 1400.51C196.815 1400.03 196.337 1399.51 195.92 1398.94C195.503 1398.38 195.204 1397.79 195.022 1397.18C194.852 1396.57 194.817 1395.95 194.916 1395.31C195.039 1394.67 195.365 1394.03 195.896 1393.39L198.312 1395.55Z" fill="black"/>
<path d="M55.9843 1396L64.9698 1404.03L62.8594 1406.39L56.6841 1400.87L54.0461 1403.83L59.398 1408.61L57.4475 1410.79L52.0956 1406.01L47.3792 1411.29L44.569 1408.78L55.9843 1396ZM60.527 1411.52C61.0958 1410.95 61.6873 1410.59 62.3015 1410.43C62.9158 1410.27 63.5323 1410.25 64.1512 1410.38C64.7701 1410.5 65.3728 1410.74 65.9592 1411.09C66.5683 1411.44 67.1294 1411.85 67.6425 1412.3C68.1079 1412.72 68.5472 1413.18 68.9606 1413.67C69.3846 1414.16 69.7083 1414.67 69.9315 1415.22C70.1548 1415.76 70.2371 1416.32 70.1786 1416.89C70.1308 1417.44 69.8564 1418 69.3554 1418.56L65.0547 1423.38C64.6816 1423.8 64.3484 1424.22 64.0551 1424.64C63.7617 1425.07 63.5895 1425.43 63.5382 1425.73L60.9607 1423.42C61.0409 1423.24 61.1271 1423.06 61.2192 1422.88C61.3339 1422.71 61.4545 1422.53 61.5811 1422.37C60.8024 1422.42 60.0639 1422.29 59.3658 1421.97C58.6677 1421.64 58.0322 1421.23 57.4594 1420.71C57.0179 1420.32 56.6542 1419.9 56.3683 1419.45C56.0823 1419 55.8974 1418.54 55.8135 1418.05C55.7297 1417.57 55.7588 1417.08 55.9008 1416.59C56.0548 1416.1 56.3449 1415.62 56.7713 1415.14C57.2402 1414.62 57.7135 1414.27 58.1909 1414.09C58.6909 1413.92 59.1747 1413.86 59.6423 1413.91C60.1218 1413.97 60.5892 1414.12 61.0444 1414.36C61.5221 1414.59 61.9786 1414.85 62.4138 1415.13C62.8489 1415.41 63.2674 1415.7 63.6693 1416C64.0712 1416.29 64.4473 1416.53 64.7977 1416.71C65.148 1416.9 65.4653 1417 65.7496 1417.02C66.0446 1417.02 66.3034 1416.89 66.5259 1416.62C66.7711 1416.34 66.9152 1416.08 66.9583 1415.84C67.024 1415.6 67.0166 1415.37 66.9361 1415.15C66.8781 1414.92 66.7584 1414.71 66.5768 1414.51C66.4179 1414.3 66.2251 1414.09 65.9983 1413.89C65.4972 1413.44 65.0074 1413.2 64.5292 1413.16C64.051 1413.12 63.5641 1413.33 63.0687 1413.79L60.527 1411.52ZM64.7193 1418.64C64.5266 1418.64 64.3201 1418.59 64.0998 1418.5C63.902 1418.41 63.6917 1418.3 63.4688 1418.17C63.2578 1418.04 63.0402 1417.9 62.816 1417.74C62.5919 1417.59 62.3624 1417.43 62.1275 1417.29C61.9046 1417.15 61.6711 1417.03 61.4268 1416.92C61.1946 1416.82 60.9589 1416.76 60.7197 1416.74C60.5032 1416.72 60.2839 1416.75 60.0618 1416.83C59.8397 1416.91 59.6221 1417.07 59.4089 1417.31C59.2064 1417.53 59.0776 1417.76 59.0226 1417.99C58.9676 1418.22 58.969 1418.45 59.0269 1418.67C59.0955 1418.88 59.2093 1419.09 59.3682 1419.3C59.5272 1419.5 59.7081 1419.7 59.9109 1419.88C60.4121 1420.33 60.8746 1420.59 61.2982 1420.67C61.7219 1420.75 62.1006 1420.73 62.4344 1420.62C62.7788 1420.5 63.0696 1420.33 63.3066 1420.11C63.5556 1419.91 63.744 1419.73 63.8719 1419.59L64.7193 1418.64ZM77.347 1418.85L74.8053 1416.58L76.6759 1414.48L79.2176 1416.75L77.347 1418.85ZM73.5262 1418.01L76.068 1420.28L67.8022 1429.53L65.2605 1427.26L73.5262 1418.01ZM78.0693 1422.07L80.4857 1424.23L78.9509 1425.94L78.9867 1425.98C79.3618 1425.8 79.7574 1425.68 80.1735 1425.62C80.6001 1425.55 81.0194 1425.55 81.4311 1425.62C81.8535 1425.67 82.2565 1425.79 82.6401 1425.96C83.0237 1426.13 83.3766 1426.36 83.6988 1426.65C83.8658 1426.79 84.0241 1426.99 84.1737 1427.23L82.0633 1429.59C81.9653 1429.46 81.8381 1429.32 81.6817 1429.16C81.5359 1428.98 81.3855 1428.83 81.2304 1428.69C80.765 1428.27 80.3019 1428 79.8412 1427.87C79.3804 1427.73 78.926 1427.71 78.478 1427.81C78.0526 1427.9 77.6383 1428.09 77.235 1428.37C76.8317 1428.65 76.4435 1429 76.0705 1429.42L72.3453 1433.59L69.8036 1431.32L78.0693 1422.07ZM94.1439 1434.33L90.3134 1430.91L92.4238 1428.55L102.895 1437.9L100.785 1440.27L96.9541 1436.84L87.6491 1447.26L84.8389 1444.75L94.1439 1434.33ZM99.3073 1441.04L101.724 1443.2L100.189 1444.91L100.225 1444.95C100.6 1444.77 100.995 1444.65 101.411 1444.59C101.838 1444.52 102.257 1444.52 102.669 1444.59C103.092 1444.64 103.495 1444.76 103.878 1444.93C104.262 1445.1 104.615 1445.33 104.937 1445.62C105.104 1445.76 105.262 1445.96 105.412 1446.2L103.301 1448.56C103.203 1448.43 103.076 1448.29 102.92 1448.13C102.774 1447.95 102.624 1447.8 102.468 1447.66C102.003 1447.24 101.54 1446.97 101.079 1446.84C100.618 1446.7 100.164 1446.68 99.716 1446.78C99.2906 1446.87 98.8763 1447.06 98.473 1447.34C98.0697 1447.62 97.6815 1447.97 97.3085 1448.39L93.5833 1452.56L91.0416 1450.29L99.3073 1441.04ZM103.615 1450C104.184 1449.44 104.775 1449.08 105.389 1448.92C106.004 1448.76 106.62 1448.74 107.239 1448.86C107.858 1448.99 108.461 1449.22 109.047 1449.58C109.656 1449.93 110.217 1450.33 110.73 1450.79C111.196 1451.21 111.635 1451.66 112.048 1452.16C112.472 1452.65 112.796 1453.16 113.019 1453.7C113.243 1454.25 113.325 1454.8 113.266 1455.37C113.219 1455.93 112.944 1456.49 112.443 1457.05L108.142 1461.87C107.769 1462.28 107.436 1462.7 107.143 1463.13C106.85 1463.55 106.677 1463.91 106.626 1464.21L104.049 1461.91C104.129 1461.72 104.215 1461.54 104.307 1461.37C104.422 1461.19 104.542 1461.02 104.669 1460.85C103.89 1460.91 103.152 1460.78 102.454 1460.45C101.755 1460.13 101.12 1459.71 100.547 1459.2C100.106 1458.81 99.742 1458.38 99.4561 1457.94C99.1701 1457.49 98.9852 1457.02 98.9014 1456.54C98.8175 1456.06 98.8466 1455.57 98.9886 1455.07C99.1426 1454.59 99.4327 1454.11 99.8591 1453.63C100.328 1453.11 100.801 1452.76 101.279 1452.58C101.779 1452.41 102.263 1452.34 102.73 1452.4C103.21 1452.46 103.677 1452.61 104.132 1452.85C104.61 1453.08 105.066 1453.34 105.502 1453.62C105.937 1453.9 106.355 1454.19 106.757 1454.48C107.159 1454.78 107.535 1455.02 107.885 1455.2C108.236 1455.38 108.553 1455.49 108.837 1455.5C109.132 1455.51 109.391 1455.38 109.614 1455.1C109.859 1454.83 110.003 1454.57 110.046 1454.33C110.112 1454.09 110.104 1453.86 110.024 1453.63C109.966 1453.41 109.846 1453.2 109.665 1452.99C109.506 1452.79 109.313 1452.58 109.086 1452.38C108.585 1451.93 108.095 1451.69 107.617 1451.65C107.139 1451.6 106.652 1451.81 106.157 1452.27L103.615 1450ZM107.807 1457.13C107.614 1457.12 107.408 1457.08 107.188 1456.99C106.99 1456.9 106.779 1456.79 106.557 1456.65C106.346 1456.53 106.128 1456.39 105.904 1456.23C105.68 1456.07 105.45 1455.92 105.215 1455.78C104.992 1455.64 104.759 1455.52 104.515 1455.41C104.282 1455.31 104.047 1455.25 103.808 1455.23C103.591 1455.2 103.372 1455.23 103.15 1455.31C102.928 1455.39 102.71 1455.55 102.497 1455.79C102.294 1456.02 102.165 1456.25 102.11 1456.48C102.055 1456.71 102.057 1456.93 102.115 1457.16C102.183 1457.37 102.297 1457.58 102.456 1457.78C102.615 1457.99 102.796 1458.18 102.999 1458.37C103.5 1458.81 103.962 1459.08 104.386 1459.15C104.81 1459.23 105.188 1459.22 105.522 1459.11C105.867 1458.99 106.157 1458.82 106.394 1458.6C106.643 1458.39 106.832 1458.22 106.96 1458.07L107.807 1457.13ZM119.003 1466.9C119.344 1466.52 119.633 1466.12 119.87 1465.71C120.119 1465.29 120.27 1464.87 120.326 1464.45C120.404 1464.02 120.38 1463.6 120.255 1463.19C120.13 1462.78 119.859 1462.39 119.441 1462.01C119.023 1461.64 118.597 1461.41 118.161 1461.32C117.725 1461.23 117.296 1461.25 116.871 1461.36C116.459 1461.49 116.051 1461.69 115.648 1461.97C115.267 1462.26 114.907 1462.59 114.566 1462.97C114.246 1463.33 113.968 1463.72 113.732 1464.15C113.495 1464.59 113.339 1465.03 113.262 1465.47C113.208 1465.92 113.238 1466.35 113.352 1466.78C113.49 1467.2 113.755 1467.59 114.149 1467.94C114.567 1468.31 114.987 1468.54 115.411 1468.62C115.847 1468.7 116.27 1468.69 116.683 1468.56C117.106 1468.42 117.513 1468.21 117.904 1467.91C118.295 1467.62 118.662 1467.28 119.003 1466.9ZM115.937 1470.4L115.901 1470.37C115.155 1470.61 114.436 1470.62 113.744 1470.41C113.075 1470.2 112.436 1469.82 111.828 1469.28C111.136 1468.66 110.644 1467.98 110.354 1467.25C110.074 1466.51 109.963 1465.76 110.022 1464.99C110.104 1464.23 110.322 1463.47 110.676 1462.71C111.041 1461.97 111.512 1461.27 112.088 1460.63C112.642 1460.01 113.258 1459.48 113.937 1459.06C114.638 1458.64 115.353 1458.35 116.082 1458.21C116.822 1458.08 117.566 1458.11 118.314 1458.3C119.072 1458.49 119.791 1458.88 120.471 1459.49C121.02 1459.98 121.433 1460.56 121.709 1461.24C122.008 1461.91 122.098 1462.61 121.979 1463.32L122.015 1463.35L126.172 1458.69L128.713 1460.96L117.298 1473.74L114.882 1471.59L115.937 1470.4ZM130.468 1475.4C130.925 1474.65 131.147 1473.97 131.135 1473.36C131.135 1472.76 130.825 1472.18 130.204 1471.63C129.799 1471.27 129.395 1471.03 128.992 1470.93C128.612 1470.83 128.248 1470.8 127.9 1470.86C127.564 1470.92 127.259 1471.03 126.985 1471.2C126.722 1471.37 126.505 1471.54 126.334 1471.71L130.468 1475.4ZM124.895 1473.32C124.195 1474.18 123.871 1474.96 123.922 1475.67C123.974 1476.38 124.357 1477.06 125.073 1477.7C125.587 1478.15 126.14 1478.42 126.734 1478.5C127.338 1478.57 127.81 1478.5 128.149 1478.29L130.387 1480.29C129.038 1481.08 127.78 1481.38 126.614 1481.2C125.447 1481.01 124.339 1480.45 123.289 1479.51C122.561 1478.86 122.006 1478.16 121.624 1477.42C121.252 1476.65 121.056 1475.88 121.034 1475.09C121.012 1474.29 121.154 1473.5 121.46 1472.7C121.778 1471.91 122.257 1471.16 122.896 1470.44C123.515 1469.75 124.204 1469.21 124.963 1468.81C125.723 1468.42 126.503 1468.19 127.305 1468.14C128.117 1468.07 128.921 1468.16 129.718 1468.43C130.526 1468.7 131.283 1469.15 131.987 1469.78C132.774 1470.48 133.322 1471.25 133.629 1472.08C133.948 1472.9 134.063 1473.73 133.974 1474.58C133.898 1475.43 133.65 1476.26 133.231 1477.07C132.812 1477.87 132.258 1478.61 131.571 1479.28L124.895 1473.32Z" fill="black"/>
<path d="M117.1 1625.58C116.023 1625.78 115.063 1625.74 114.22 1625.46C113.387 1625.16 112.661 1624.74 112.04 1624.18C111.062 1623.31 110.328 1622.35 109.839 1621.32C109.373 1620.28 109.137 1619.22 109.133 1618.14C109.129 1617.07 109.341 1616 109.769 1614.95C110.207 1613.88 110.842 1612.88 111.673 1611.95C112.526 1611 113.458 1610.24 114.469 1609.68C115.491 1609.12 116.542 1608.77 117.623 1608.64C118.703 1608.51 119.786 1608.62 120.871 1608.97C121.967 1609.32 123.005 1609.94 123.983 1610.81C124.64 1611.4 125.182 1612.07 125.609 1612.81C126.059 1613.56 126.358 1614.34 126.506 1615.16C126.666 1615.99 126.657 1616.83 126.478 1617.68C126.299 1618.52 125.921 1619.34 125.342 1620.14L122.657 1617.74C123.13 1616.87 123.287 1616.05 123.13 1615.26C122.972 1614.48 122.553 1613.78 121.873 1613.18C121.241 1612.61 120.592 1612.26 119.926 1612.11C119.272 1611.96 118.621 1611.97 117.973 1612.14C117.336 1612.3 116.718 1612.58 116.117 1612.99C115.529 1613.41 114.984 1613.9 114.484 1614.46C114.004 1615 113.595 1615.58 113.256 1616.2C112.939 1616.81 112.737 1617.45 112.649 1618.1C112.561 1618.75 112.626 1619.4 112.844 1620.04C113.072 1620.68 113.502 1621.27 114.135 1621.84C115.066 1622.67 115.989 1623.08 116.906 1623.06C117.846 1623.04 118.757 1622.62 119.64 1621.8L116.812 1619.27L118.682 1617.18L124.052 1621.98L117.881 1628.89L116.091 1627.29L117.1 1625.58ZM132.04 1622.32L129.498 1620.05L131.369 1617.96L133.911 1620.23L132.04 1622.32ZM128.219 1621.48L130.761 1623.75L122.495 1633.01L119.953 1630.74L128.219 1621.48ZM129.616 1639.37L126.788 1636.84L131.885 1624.76L134.552 1627.14L130.86 1635.2L130.895 1635.23L138.49 1630.66L141.014 1632.91L129.616 1639.37ZM145.045 1643.04C145.501 1642.29 145.723 1641.61 145.712 1641C145.712 1640.4 145.402 1639.82 144.781 1639.27C144.375 1638.91 143.971 1638.67 143.569 1638.57C143.189 1638.47 142.825 1638.44 142.477 1638.5C142.141 1638.56 141.835 1638.68 141.561 1638.84C141.299 1639.01 141.082 1639.18 140.91 1639.35L145.045 1643.04ZM139.471 1640.96C138.772 1641.82 138.448 1642.6 138.499 1643.31C138.55 1644.02 138.934 1644.7 139.65 1645.34C140.163 1645.8 140.717 1646.07 141.31 1646.15C141.915 1646.21 142.387 1646.14 142.726 1645.93L144.963 1647.93C143.614 1648.72 142.357 1649.02 141.19 1648.84C140.024 1648.65 138.916 1648.09 137.866 1647.16C137.138 1646.51 136.583 1645.81 136.201 1645.06C135.829 1644.3 135.632 1643.52 135.61 1642.73C135.588 1641.94 135.731 1641.14 136.037 1640.34C136.355 1639.55 136.834 1638.8 137.473 1638.08C138.091 1637.39 138.78 1636.85 139.54 1636.45C140.3 1636.06 141.08 1635.84 141.881 1635.78C142.694 1635.71 143.498 1635.81 144.294 1636.07C145.103 1636.34 145.859 1636.79 146.563 1637.42C147.351 1638.12 147.898 1638.89 148.206 1639.72C148.524 1640.54 148.639 1641.37 148.551 1642.22C148.474 1643.07 148.227 1643.9 147.807 1644.71C147.388 1645.51 146.835 1646.25 146.148 1646.93L139.471 1640.96ZM148.729 1651.03C148.484 1651.31 148.324 1651.59 148.25 1651.89C148.199 1652.19 148.204 1652.49 148.266 1652.78C148.339 1653.06 148.462 1653.33 148.635 1653.59C148.82 1653.86 149.038 1654.11 149.289 1654.33C149.468 1654.49 149.669 1654.64 149.892 1654.78C150.137 1654.91 150.375 1655 150.605 1655.06C150.857 1655.11 151.101 1655.12 151.336 1655.07C151.582 1655.01 151.806 1654.87 152.009 1654.64C152.35 1654.26 152.349 1653.74 152.007 1653.09C151.676 1652.45 151.142 1651.63 150.406 1650.63C150.111 1650.22 149.832 1649.8 149.57 1649.37C149.33 1648.94 149.153 1648.52 149.039 1648.09C148.935 1647.66 148.922 1647.23 149 1646.8C149.089 1646.37 149.314 1645.95 149.677 1645.54C150.21 1644.94 150.76 1644.56 151.328 1644.38C151.908 1644.21 152.484 1644.19 153.058 1644.31C153.642 1644.43 154.211 1644.66 154.763 1645C155.325 1645.33 155.857 1645.72 156.358 1646.17C156.859 1646.61 157.3 1647.09 157.68 1647.61C158.072 1648.13 158.352 1648.67 158.519 1649.22C158.687 1649.78 158.719 1650.36 158.617 1650.95C158.537 1651.55 158.265 1652.15 157.801 1652.77L155.385 1650.61C155.786 1650.09 155.894 1649.59 155.709 1649.13C155.535 1648.65 155.221 1648.21 154.768 1647.8C154.625 1647.68 154.459 1647.55 154.27 1647.42C154.093 1647.29 153.906 1647.18 153.709 1647.12C153.525 1647.06 153.331 1647.05 153.129 1647.08C152.938 1647.1 152.757 1647.21 152.586 1647.4C152.384 1647.63 152.302 1647.89 152.341 1648.18C152.38 1648.47 152.489 1648.78 152.666 1649.11C152.866 1649.44 153.107 1649.8 153.389 1650.18C153.671 1650.56 153.954 1650.95 154.237 1651.35C154.532 1651.77 154.8 1652.19 155.039 1652.62C155.291 1653.05 155.463 1653.5 155.556 1653.95C155.66 1654.38 155.662 1654.82 155.563 1655.27C155.474 1655.71 155.238 1656.14 154.854 1656.57C154.311 1657.18 153.727 1657.58 153.103 1657.77C152.502 1657.97 151.893 1658.01 151.275 1657.91C150.658 1657.81 150.05 1657.58 149.451 1657.21C148.854 1656.87 148.293 1656.47 147.768 1656C147.231 1655.52 146.754 1655 146.337 1654.43C145.92 1653.87 145.62 1653.28 145.438 1652.66C145.268 1652.06 145.233 1651.44 145.333 1650.8C145.456 1650.16 145.782 1649.52 146.312 1648.88L148.729 1651.03ZM162.369 1668.62L159.953 1666.47L161.104 1665.18L161.05 1665.13C160.248 1665.38 159.484 1665.39 158.758 1665.17C158.032 1664.95 157.4 1664.6 156.863 1664.12C156.183 1663.52 155.702 1662.93 155.42 1662.35C155.151 1661.79 155.034 1661.24 155.071 1660.69C155.119 1660.13 155.297 1659.57 155.606 1659.01C155.937 1658.45 156.358 1657.88 156.869 1657.31L161.954 1651.62L164.495 1653.89L159.827 1659.11C159.145 1659.88 158.752 1660.56 158.65 1661.15C158.558 1661.73 158.817 1662.3 159.425 1662.84C160.117 1663.46 160.8 1663.7 161.472 1663.57C162.156 1663.43 162.918 1662.89 163.76 1661.95L168.093 1657.1L170.635 1659.37L162.369 1668.62ZM172.564 1661.09L174.98 1663.25L173.445 1664.97L173.481 1665C173.856 1664.82 174.252 1664.7 174.668 1664.65C175.095 1664.58 175.514 1664.58 175.926 1664.64C176.348 1664.7 176.751 1664.81 177.135 1664.98C177.518 1665.15 177.871 1665.38 178.193 1665.67C178.36 1665.82 178.519 1666.01 178.668 1666.26L176.558 1668.62C176.46 1668.49 176.333 1668.34 176.176 1668.18C176.03 1668.01 175.88 1667.85 175.725 1667.71C175.26 1667.3 174.796 1667.02 174.336 1666.89C173.875 1666.76 173.421 1666.74 172.973 1666.83C172.547 1666.92 172.133 1667.11 171.73 1667.39C171.326 1667.68 170.938 1668.03 170.565 1668.45L166.84 1672.62L164.298 1670.35L172.564 1661.09ZM176.871 1670.06C177.44 1669.49 178.032 1669.13 178.646 1668.97C179.26 1668.81 179.877 1668.79 180.496 1668.92C181.114 1669.04 181.717 1669.28 182.304 1669.63C182.913 1669.98 183.474 1670.39 183.987 1670.85C184.452 1671.26 184.892 1671.72 185.305 1672.22C185.729 1672.7 186.053 1673.22 186.276 1673.76C186.499 1674.3 186.581 1674.86 186.523 1675.43C186.475 1675.99 186.201 1676.54 185.7 1677.11L181.399 1681.92C181.026 1682.34 180.693 1682.76 180.399 1683.18C180.106 1683.61 179.934 1683.97 179.883 1684.27L177.305 1681.96C177.385 1681.78 177.471 1681.6 177.563 1681.42C177.678 1681.25 177.799 1681.08 177.925 1680.91C177.147 1680.96 176.408 1680.83 175.71 1680.51C175.012 1680.18 174.377 1679.77 173.804 1679.26C173.362 1678.86 172.999 1678.44 172.713 1677.99C172.427 1677.54 172.242 1677.08 172.158 1676.59C172.074 1676.11 172.103 1675.62 172.245 1675.13C172.399 1674.64 172.689 1674.16 173.116 1673.69C173.585 1673.16 174.058 1672.81 174.535 1672.64C175.035 1672.46 175.519 1672.4 175.987 1672.45C176.466 1672.52 176.934 1672.67 177.389 1672.9C177.866 1673.13 178.323 1673.39 178.758 1673.67C179.193 1673.95 179.612 1674.24 180.014 1674.54C180.416 1674.83 180.792 1675.07 181.142 1675.26C181.492 1675.44 181.81 1675.54 182.094 1675.56C182.389 1675.56 182.648 1675.43 182.87 1675.16C183.115 1674.88 183.26 1674.63 183.303 1674.39C183.368 1674.14 183.361 1673.91 183.28 1673.69C183.222 1673.47 183.103 1673.25 182.921 1673.05C182.762 1672.84 182.569 1672.64 182.343 1672.43C181.841 1671.99 181.352 1671.74 180.874 1671.7C180.395 1671.66 179.908 1671.87 179.413 1672.33L176.871 1670.06ZM181.064 1677.18C180.871 1677.18 180.664 1677.13 180.444 1677.05C180.246 1676.95 180.036 1676.84 179.813 1676.71C179.602 1676.58 179.385 1676.44 179.16 1676.28C178.936 1676.13 178.707 1675.98 178.472 1675.83C178.249 1675.7 178.015 1675.57 177.771 1675.46C177.539 1675.36 177.303 1675.3 177.064 1675.28C176.848 1675.26 176.628 1675.29 176.406 1675.37C176.184 1675.45 175.966 1675.61 175.753 1675.85C175.551 1676.07 175.422 1676.3 175.367 1676.53C175.312 1676.76 175.313 1676.99 175.371 1677.21C175.44 1677.42 175.554 1677.63 175.713 1677.84C175.872 1678.05 176.052 1678.24 176.255 1678.42C176.756 1678.87 177.219 1679.13 177.643 1679.21C178.066 1679.29 178.445 1679.27 178.779 1679.16C179.123 1679.04 179.414 1678.87 179.651 1678.65C179.9 1678.45 180.088 1678.27 180.216 1678.13L181.064 1677.18ZM189.799 1676.49L192.215 1678.65L191.064 1679.93L191.118 1679.98C191.92 1679.73 192.684 1679.72 193.41 1679.94C194.147 1680.15 194.784 1680.49 195.321 1680.97C196.001 1681.58 196.471 1682.17 196.73 1682.74C197.012 1683.32 197.128 1683.88 197.081 1684.44C197.043 1684.99 196.859 1685.54 196.528 1686.1C196.22 1686.66 195.81 1687.23 195.299 1687.8L190.214 1693.5L187.673 1691.23L192.341 1686C193.023 1685.23 193.41 1684.56 193.502 1683.98C193.604 1683.38 193.351 1682.81 192.743 1682.27C192.051 1681.65 191.363 1681.41 190.68 1681.55C190.007 1681.68 189.25 1682.22 188.408 1683.16L184.075 1688.01L181.533 1685.74L189.799 1676.49ZM203.8 1694.85C204.582 1693.64 204.429 1692.55 203.344 1691.58C202.938 1691.22 202.512 1691.01 202.067 1690.95C201.633 1690.89 201.193 1690.92 200.748 1691.06C200.325 1691.2 199.918 1691.41 199.526 1691.71C199.146 1691.99 198.801 1692.3 198.492 1692.65C198.193 1692.98 197.925 1693.36 197.688 1693.77C197.45 1694.18 197.281 1694.59 197.181 1695.02C197.102 1695.44 197.121 1695.87 197.235 1696.29C197.35 1696.72 197.604 1697.1 197.998 1697.45C198.606 1698 199.221 1698.25 199.842 1698.2C200.485 1698.15 201.104 1697.88 201.699 1697.38L204.151 1699.57C202.886 1700.65 201.572 1701.16 200.209 1701.1C198.846 1701.04 197.55 1700.47 196.321 1699.37C195.629 1698.75 195.092 1698.07 194.71 1697.32C194.35 1696.57 194.154 1695.8 194.121 1695.02C194.088 1694.24 194.215 1693.46 194.499 1692.69C194.795 1691.9 195.252 1691.16 195.87 1690.47C196.51 1689.75 197.203 1689.18 197.949 1688.75C198.718 1688.33 199.503 1688.07 200.303 1687.99C201.113 1687.9 201.923 1687.99 202.732 1688.26C203.54 1688.54 204.32 1689.01 205.072 1689.68C205.621 1690.17 206.082 1690.71 206.455 1691.3C206.841 1691.9 207.097 1692.53 207.224 1693.18C207.374 1693.83 207.377 1694.48 207.233 1695.15C207.1 1695.8 206.785 1696.44 206.288 1697.07L203.8 1694.85ZM213.671 1704.34C214.127 1703.59 214.349 1702.91 214.337 1702.3C214.338 1701.7 214.027 1701.12 213.407 1700.57C213.001 1700.2 212.597 1699.97 212.195 1699.87C211.815 1699.77 211.451 1699.74 211.103 1699.8C210.766 1699.86 210.461 1699.97 210.187 1700.14C209.925 1700.31 209.708 1700.48 209.536 1700.65L213.671 1704.34ZM208.097 1702.26C207.398 1703.12 207.073 1703.9 207.125 1704.61C207.176 1705.32 207.56 1706 208.276 1706.64C208.789 1707.09 209.343 1707.36 209.936 1707.44C210.541 1707.51 211.013 1707.44 211.352 1707.23L213.589 1709.23C212.24 1710.02 210.982 1710.32 209.816 1710.13C208.65 1709.95 207.542 1709.39 206.492 1708.45C205.764 1707.8 205.209 1707.1 204.827 1706.35C204.455 1705.59 204.258 1704.82 204.236 1704.02C204.214 1703.23 204.356 1702.44 204.663 1701.64C204.981 1700.85 205.46 1700.1 206.099 1699.38C206.717 1698.69 207.406 1698.15 208.166 1697.75C208.925 1697.36 209.706 1697.13 210.507 1697.08C211.319 1697.01 212.124 1697.1 212.92 1697.36C213.729 1697.64 214.485 1698.09 215.189 1698.72C215.977 1699.42 216.524 1700.19 216.832 1701.02C217.15 1701.84 217.265 1702.67 217.177 1703.52C217.1 1704.37 216.852 1705.2 216.433 1706.01C216.014 1706.81 215.461 1707.55 214.774 1708.22L208.097 1702.26Z" fill="black"/>
<path d="M109.448 2247.03H104.312V2243.86H118.352V2247.03H113.216V2261H109.448V2247.03ZM131.48 2261H127.976L125.768 2252.67H125.72L123.608 2261H120.08L116.144 2248.59H119.744L122.024 2257.02H122.072L124.136 2248.59H127.448L129.56 2256.99H129.608L131.888 2248.59H135.392L131.48 2261ZM140.347 2246.67H136.939V2243.86H140.347V2246.67ZM136.939 2248.59H140.347V2261H136.939V2248.59ZM147.35 2248.59H149.846V2250.87H147.35V2257.02C147.35 2257.59 147.446 2257.98 147.638 2258.17C147.83 2258.36 148.214 2258.46 148.79 2258.46C148.982 2258.46 149.166 2258.45 149.342 2258.43C149.518 2258.42 149.686 2258.39 149.846 2258.36V2261C149.558 2261.05 149.238 2261.08 148.886 2261.1C148.534 2261.11 148.19 2261.12 147.854 2261.12C147.326 2261.12 146.822 2261.08 146.342 2261C145.878 2260.94 145.462 2260.8 145.094 2260.59C144.742 2260.38 144.462 2260.09 144.254 2259.7C144.046 2259.32 143.942 2258.82 143.942 2258.19V2250.87H141.878V2248.59H143.942V2244.87H147.35V2248.59ZM155.788 2248.59H158.284V2250.87H155.788V2257.02C155.788 2257.59 155.884 2257.98 156.076 2258.17C156.268 2258.36 156.652 2258.46 157.228 2258.46C157.42 2258.46 157.604 2258.45 157.78 2258.43C157.956 2258.42 158.124 2258.39 158.284 2258.36V2261C157.996 2261.05 157.676 2261.08 157.324 2261.1C156.972 2261.11 156.628 2261.12 156.292 2261.12C155.764 2261.12 155.26 2261.08 154.78 2261C154.316 2260.94 153.9 2260.8 153.532 2260.59C153.18 2260.38 152.9 2260.09 152.692 2259.7C152.484 2259.32 152.38 2258.82 152.38 2258.19V2250.87H150.316V2248.59H152.38V2244.87H155.788V2248.59ZM168.257 2253.46C168.097 2252.6 167.809 2251.94 167.393 2251.5C166.993 2251.05 166.377 2250.82 165.545 2250.82C165.001 2250.82 164.545 2250.92 164.177 2251.11C163.825 2251.29 163.537 2251.51 163.313 2251.78C163.105 2252.06 162.953 2252.34 162.857 2252.65C162.777 2252.95 162.729 2253.22 162.713 2253.46H168.257ZM162.713 2255.62C162.761 2256.73 163.041 2257.53 163.553 2258.02C164.065 2258.52 164.801 2258.77 165.761 2258.77C166.449 2258.77 167.041 2258.6 167.537 2258.26C168.033 2257.91 168.337 2257.54 168.449 2257.16H171.449C170.969 2258.65 170.233 2259.71 169.241 2260.35C168.249 2260.99 167.049 2261.31 165.641 2261.31C164.665 2261.31 163.785 2261.16 163.001 2260.86C162.217 2260.54 161.553 2260.09 161.009 2259.51C160.465 2258.94 160.041 2258.25 159.737 2257.45C159.449 2256.65 159.305 2255.77 159.305 2254.81C159.305 2253.88 159.457 2253.02 159.761 2252.22C160.065 2251.42 160.497 2250.73 161.057 2250.15C161.617 2249.56 162.281 2249.1 163.049 2248.76C163.833 2248.42 164.697 2248.26 165.641 2248.26C166.697 2248.26 167.617 2248.46 168.401 2248.88C169.185 2249.28 169.825 2249.82 170.321 2250.51C170.833 2251.2 171.201 2251.98 171.425 2252.86C171.649 2253.74 171.729 2254.66 171.665 2255.62H162.713ZM173.687 2248.59H176.927V2250.9H176.975C177.135 2250.51 177.351 2250.16 177.623 2249.84C177.895 2249.5 178.207 2249.22 178.559 2249C178.911 2248.76 179.287 2248.58 179.687 2248.45C180.087 2248.32 180.503 2248.26 180.935 2248.26C181.159 2248.26 181.407 2248.3 181.679 2248.38V2251.54C181.519 2251.51 181.327 2251.49 181.103 2251.47C180.879 2251.44 180.663 2251.42 180.455 2251.42C179.831 2251.42 179.303 2251.53 178.871 2251.74C178.439 2251.94 178.087 2252.23 177.815 2252.6C177.559 2252.95 177.375 2253.37 177.263 2253.85C177.151 2254.33 177.095 2254.85 177.095 2255.41V2261H173.687V2248.59Z" fill="black"/>
<path d="M134.448 3036.03H129.312V3032.86H143.352V3036.03H138.216V3050H134.448V3036.03ZM156.48 3050H152.976L150.768 3041.67H150.72L148.608 3050H145.08L141.144 3037.59H144.744L147.024 3046.02H147.072L149.136 3037.59H152.448L154.56 3045.99H154.608L156.888 3037.59H160.392L156.48 3050ZM165.347 3035.67H161.939V3032.86H165.347V3035.67ZM161.939 3037.59H165.347V3050H161.939V3037.59ZM172.35 3037.59H174.846V3039.87H172.35V3046.02C172.35 3046.59 172.446 3046.98 172.638 3047.17C172.83 3047.36 173.214 3047.46 173.79 3047.46C173.982 3047.46 174.166 3047.45 174.342 3047.43C174.518 3047.42 174.686 3047.39 174.846 3047.36V3050C174.558 3050.05 174.238 3050.08 173.886 3050.1C173.534 3050.11 173.19 3050.12 172.854 3050.12C172.326 3050.12 171.822 3050.08 171.342 3050C170.878 3049.94 170.462 3049.8 170.094 3049.59C169.742 3049.38 169.462 3049.09 169.254 3048.7C169.046 3048.32 168.942 3047.82 168.942 3047.19V3039.87H166.878V3037.59H168.942V3033.87H172.35V3037.59ZM180.788 3037.59H183.284V3039.87H180.788V3046.02C180.788 3046.59 180.884 3046.98 181.076 3047.17C181.268 3047.36 181.652 3047.46 182.228 3047.46C182.42 3047.46 182.604 3047.45 182.78 3047.43C182.956 3047.42 183.124 3047.39 183.284 3047.36V3050C182.996 3050.05 182.676 3050.08 182.324 3050.1C181.972 3050.11 181.628 3050.12 181.292 3050.12C180.764 3050.12 180.26 3050.08 179.78 3050C179.316 3049.94 178.9 3049.8 178.532 3049.59C178.18 3049.38 177.9 3049.09 177.692 3048.7C177.484 3048.32 177.38 3047.82 177.38 3047.19V3039.87H175.316V3037.59H177.38V3033.87H180.788V3037.59ZM193.257 3042.46C193.097 3041.6 192.809 3040.94 192.393 3040.5C191.993 3040.05 191.377 3039.82 190.545 3039.82C190.001 3039.82 189.545 3039.92 189.177 3040.11C188.825 3040.29 188.537 3040.51 188.313 3040.78C188.105 3041.06 187.953 3041.34 187.857 3041.65C187.777 3041.95 187.729 3042.22 187.713 3042.46H193.257ZM187.713 3044.62C187.761 3045.73 188.041 3046.53 188.553 3047.02C189.065 3047.52 189.801 3047.77 190.761 3047.77C191.449 3047.77 192.041 3047.6 192.537 3047.26C193.033 3046.91 193.337 3046.54 193.449 3046.16H196.449C195.969 3047.65 195.233 3048.71 194.241 3049.35C193.249 3049.99 192.049 3050.31 190.641 3050.31C189.665 3050.31 188.785 3050.16 188.001 3049.86C187.217 3049.54 186.553 3049.09 186.009 3048.51C185.465 3047.94 185.041 3047.25 184.737 3046.45C184.449 3045.65 184.305 3044.77 184.305 3043.81C184.305 3042.88 184.457 3042.02 184.761 3041.22C185.065 3040.42 185.497 3039.73 186.057 3039.15C186.617 3038.56 187.281 3038.1 188.049 3037.76C188.833 3037.42 189.697 3037.26 190.641 3037.26C191.697 3037.26 192.617 3037.46 193.401 3037.88C194.185 3038.28 194.825 3038.82 195.321 3039.51C195.833 3040.2 196.201 3040.98 196.425 3041.86C196.649 3042.74 196.729 3043.66 196.665 3044.62H187.713ZM198.687 3037.59H201.927V3039.9H201.975C202.135 3039.51 202.351 3039.16 202.623 3038.84C202.895 3038.5 203.207 3038.22 203.559 3038C203.911 3037.76 204.287 3037.58 204.687 3037.45C205.087 3037.32 205.503 3037.26 205.935 3037.26C206.159 3037.26 206.407 3037.3 206.679 3037.38V3040.54C206.519 3040.51 206.327 3040.49 206.103 3040.47C205.879 3040.44 205.663 3040.42 205.455 3040.42C204.831 3040.42 204.303 3040.53 203.871 3040.74C203.439 3040.94 203.087 3041.23 202.815 3041.6C202.559 3041.95 202.375 3042.37 202.263 3042.85C202.151 3043.33 202.095 3043.85 202.095 3044.41V3050H198.687V3037.59Z" fill="black"/>
<path d="M97.656 3172.86H109.704V3176.03H101.424V3179.99H108.6V3182.92H101.424V3190H97.656V3172.86ZM111.619 3172.86H115.027V3190H111.619V3172.86ZM120.734 3183.81C120.734 3184.3 120.782 3184.79 120.878 3185.27C120.974 3185.74 121.134 3186.16 121.358 3186.54C121.598 3186.91 121.91 3187.21 122.294 3187.43C122.678 3187.66 123.158 3187.77 123.734 3187.77C124.31 3187.77 124.79 3187.66 125.174 3187.43C125.574 3187.21 125.886 3186.91 126.11 3186.54C126.35 3186.16 126.518 3185.74 126.614 3185.27C126.71 3184.79 126.758 3184.3 126.758 3183.81C126.758 3183.31 126.71 3182.82 126.614 3182.34C126.518 3181.86 126.35 3181.44 126.11 3181.07C125.886 3180.7 125.574 3180.41 125.174 3180.18C124.79 3179.94 124.31 3179.82 123.734 3179.82C123.158 3179.82 122.678 3179.94 122.294 3180.18C121.91 3180.41 121.598 3180.7 121.358 3181.07C121.134 3181.44 120.974 3181.86 120.878 3182.34C120.782 3182.82 120.734 3183.31 120.734 3183.81ZM117.326 3183.81C117.326 3182.82 117.478 3181.92 117.782 3181.12C118.086 3180.3 118.518 3179.62 119.078 3179.06C119.638 3178.48 120.31 3178.04 121.094 3177.74C121.878 3177.42 122.758 3177.26 123.734 3177.26C124.71 3177.26 125.59 3177.42 126.374 3177.74C127.174 3178.04 127.854 3178.48 128.414 3179.06C128.974 3179.62 129.406 3180.3 129.71 3181.12C130.014 3181.92 130.166 3182.82 130.166 3183.81C130.166 3184.8 130.014 3185.7 129.71 3186.5C129.406 3187.3 128.974 3187.98 128.414 3188.56C127.854 3189.12 127.174 3189.55 126.374 3189.86C125.59 3190.16 124.71 3190.31 123.734 3190.31C122.758 3190.31 121.878 3190.16 121.094 3189.86C120.31 3189.55 119.638 3189.12 119.078 3188.56C118.518 3187.98 118.086 3187.3 117.782 3186.5C117.478 3185.7 117.326 3184.8 117.326 3183.81ZM146.566 3190H143.062L140.854 3181.67H140.806L138.694 3190H135.166L131.23 3177.59H134.83L137.11 3186.02H137.158L139.222 3177.59H142.534L144.646 3185.99H144.694L146.974 3177.59H150.478L146.566 3190ZM157.713 3187.07C158.193 3187.07 158.617 3186.98 158.985 3186.78C159.353 3186.59 159.657 3186.34 159.897 3186.02C160.137 3185.7 160.313 3185.34 160.425 3184.94C160.553 3184.52 160.617 3184.09 160.617 3183.64C160.617 3183.13 160.569 3182.65 160.473 3182.2C160.377 3181.74 160.217 3181.33 159.993 3180.98C159.769 3180.62 159.473 3180.34 159.105 3180.14C158.737 3179.93 158.273 3179.82 157.713 3179.82C157.233 3179.82 156.817 3179.92 156.465 3180.11C156.129 3180.3 155.841 3180.57 155.601 3180.9C155.377 3181.22 155.209 3181.6 155.097 3182.03C155.001 3182.45 154.953 3182.89 154.953 3183.35C154.953 3183.8 154.993 3184.25 155.073 3184.7C155.169 3185.13 155.321 3185.52 155.529 3185.87C155.753 3186.22 156.041 3186.51 156.393 3186.74C156.745 3186.96 157.185 3187.07 157.713 3187.07ZM163.857 3189.21C163.857 3189.7 163.785 3190.27 163.641 3190.91C163.513 3191.55 163.225 3192.14 162.777 3192.69C162.329 3193.25 161.681 3193.72 160.833 3194.1C159.985 3194.49 158.849 3194.68 157.425 3194.68C156.817 3194.68 156.193 3194.6 155.553 3194.44C154.929 3194.3 154.353 3194.06 153.825 3193.74C153.313 3193.42 152.881 3193.01 152.529 3192.5C152.193 3192 152.001 3191.4 151.953 3190.7H155.337C155.497 3191.34 155.809 3191.78 156.273 3192.02C156.737 3192.27 157.273 3192.4 157.881 3192.4C158.841 3192.4 159.537 3192.11 159.969 3191.54C160.417 3190.96 160.633 3190.23 160.617 3189.35V3187.72H160.569C160.201 3188.38 159.673 3188.86 158.985 3189.18C158.313 3189.49 157.601 3189.64 156.849 3189.64C155.921 3189.64 155.121 3189.48 154.449 3189.16C153.777 3188.82 153.225 3188.38 152.793 3187.82C152.361 3187.24 152.041 3186.58 151.833 3185.82C151.641 3185.06 151.545 3184.25 151.545 3183.4C151.545 3182.6 151.657 3181.83 151.881 3181.1C152.121 3180.34 152.465 3179.69 152.913 3179.13C153.361 3178.55 153.913 3178.1 154.569 3177.76C155.241 3177.42 156.009 3177.26 156.873 3177.26C157.689 3177.26 158.401 3177.41 159.009 3177.71C159.633 3178.02 160.153 3178.53 160.569 3179.25H160.617V3177.59H163.857V3189.21ZM166.601 3177.59H169.841V3179.9H169.889C170.049 3179.51 170.265 3179.16 170.537 3178.84C170.809 3178.5 171.121 3178.22 171.473 3178C171.825 3177.76 172.201 3177.58 172.601 3177.45C173.001 3177.32 173.417 3177.26 173.849 3177.26C174.073 3177.26 174.321 3177.3 174.593 3177.38V3180.54C174.433 3180.51 174.241 3180.49 174.017 3180.47C173.793 3180.44 173.577 3180.42 173.369 3180.42C172.745 3180.42 172.217 3180.53 171.785 3180.74C171.353 3180.94 171.001 3181.23 170.729 3181.6C170.473 3181.95 170.289 3182.37 170.177 3182.85C170.065 3183.33 170.009 3183.85 170.009 3184.41V3190H166.601V3177.59ZM175.785 3181.41C175.833 3180.61 176.033 3179.94 176.385 3179.42C176.737 3178.89 177.185 3178.46 177.729 3178.14C178.273 3177.82 178.881 3177.6 179.553 3177.47C180.241 3177.33 180.929 3177.26 181.617 3177.26C182.241 3177.26 182.873 3177.3 183.513 3177.4C184.153 3177.48 184.737 3177.65 185.265 3177.9C185.793 3178.16 186.225 3178.52 186.561 3178.98C186.897 3179.43 187.065 3180.03 187.065 3180.78V3187.24C187.065 3187.8 187.097 3188.34 187.161 3188.85C187.225 3189.36 187.337 3189.74 187.497 3190H184.041C183.977 3189.81 183.921 3189.62 183.873 3189.42C183.841 3189.22 183.817 3189.01 183.801 3188.8C183.257 3189.36 182.617 3189.75 181.881 3189.98C181.145 3190.2 180.393 3190.31 179.625 3190.31C179.033 3190.31 178.481 3190.24 177.969 3190.1C177.457 3189.95 177.009 3189.73 176.625 3189.42C176.241 3189.12 175.937 3188.74 175.713 3188.27C175.505 3187.81 175.401 3187.26 175.401 3186.62C175.401 3185.91 175.521 3185.34 175.761 3184.89C176.017 3184.42 176.337 3184.06 176.721 3183.78C177.121 3183.51 177.569 3183.31 178.065 3183.18C178.577 3183.04 179.089 3182.93 179.601 3182.85C180.113 3182.77 180.617 3182.7 181.113 3182.66C181.609 3182.61 182.049 3182.54 182.433 3182.44C182.817 3182.34 183.121 3182.21 183.345 3182.03C183.569 3181.84 183.673 3181.57 183.657 3181.22C183.657 3180.85 183.593 3180.56 183.465 3180.35C183.353 3180.13 183.193 3179.96 182.985 3179.85C182.793 3179.72 182.561 3179.64 182.289 3179.61C182.033 3179.56 181.753 3179.54 181.449 3179.54C180.777 3179.54 180.249 3179.68 179.865 3179.97C179.481 3180.26 179.257 3180.74 179.193 3181.41H175.785ZM183.657 3183.93C183.513 3184.06 183.329 3184.16 183.105 3184.24C182.897 3184.3 182.665 3184.36 182.409 3184.41C182.169 3184.46 181.913 3184.5 181.641 3184.53C181.369 3184.56 181.097 3184.6 180.825 3184.65C180.569 3184.7 180.313 3184.76 180.057 3184.84C179.817 3184.92 179.601 3185.03 179.409 3185.18C179.233 3185.3 179.089 3185.47 178.977 3185.68C178.865 3185.89 178.809 3186.15 178.809 3186.47C178.809 3186.78 178.865 3187.03 178.977 3187.24C179.089 3187.45 179.241 3187.62 179.433 3187.74C179.625 3187.86 179.849 3187.94 180.105 3187.98C180.361 3188.03 180.625 3188.06 180.897 3188.06C181.569 3188.06 182.089 3187.94 182.457 3187.72C182.825 3187.5 183.097 3187.23 183.273 3186.93C183.449 3186.61 183.553 3186.29 183.585 3185.97C183.633 3185.65 183.657 3185.39 183.657 3185.2V3183.93ZM189.806 3177.59H193.022V3179.27H193.07C193.518 3178.63 194.054 3178.14 194.678 3177.78C195.318 3177.43 196.046 3177.26 196.862 3177.26C197.646 3177.26 198.358 3177.41 198.998 3177.71C199.654 3178.02 200.15 3178.55 200.486 3179.32C200.854 3178.78 201.35 3178.3 201.974 3177.88C202.614 3177.46 203.366 3177.26 204.23 3177.26C204.886 3177.26 205.494 3177.34 206.054 3177.5C206.614 3177.66 207.094 3177.91 207.494 3178.26C207.894 3178.62 208.206 3179.08 208.43 3179.66C208.654 3180.22 208.766 3180.9 208.766 3181.7V3190H205.358V3182.97C205.358 3182.55 205.342 3182.16 205.31 3181.79C205.278 3181.42 205.19 3181.1 205.046 3180.83C204.902 3180.56 204.686 3180.34 204.398 3180.18C204.126 3180.02 203.75 3179.94 203.27 3179.94C202.79 3179.94 202.398 3180.04 202.094 3180.23C201.806 3180.41 201.574 3180.65 201.398 3180.95C201.238 3181.24 201.126 3181.58 201.062 3181.96C201.014 3182.33 200.99 3182.7 200.99 3183.09V3190H197.582V3183.04C197.582 3182.67 197.574 3182.31 197.558 3181.96C197.542 3181.59 197.47 3181.26 197.342 3180.95C197.23 3180.65 197.03 3180.41 196.742 3180.23C196.47 3180.04 196.062 3179.94 195.518 3179.94C195.358 3179.94 195.142 3179.98 194.87 3180.06C194.614 3180.13 194.358 3180.26 194.102 3180.47C193.862 3180.66 193.654 3180.95 193.478 3181.34C193.302 3181.7 193.214 3182.19 193.214 3182.8V3190H189.806V3177.59Z" fill="black"/>
<path d="M178.672 3325.1L189.136 3318.81V3323.03L182.368 3327.04L189.136 3331.02V3335.22L178.576 3328.86H172V3325.1H178.672ZM180.592 3333.96C181.392 3334 182.056 3334.2 182.584 3334.56C183.112 3334.91 183.536 3335.36 183.856 3335.9C184.176 3336.44 184.4 3337.05 184.528 3337.72C184.672 3338.41 184.744 3339.1 184.744 3339.79C184.744 3340.41 184.696 3341.04 184.6 3341.68C184.52 3342.32 184.352 3342.91 184.096 3343.44C183.84 3343.96 183.48 3344.4 183.016 3344.73C182.568 3345.07 181.968 3345.24 181.216 3345.24H174.76C174.2 3345.24 173.664 3345.27 173.152 3345.33C172.64 3345.4 172.256 3345.51 172 3345.67V3342.21C172.192 3342.15 172.384 3342.09 172.576 3342.04C172.784 3342.01 172.992 3341.99 173.2 3341.97C172.64 3341.43 172.248 3340.79 172.024 3340.05C171.8 3339.32 171.688 3338.56 171.688 3337.8C171.688 3337.2 171.76 3336.65 171.904 3336.14C172.048 3335.63 172.272 3335.18 172.576 3334.8C172.88 3334.41 173.264 3334.11 173.728 3333.88C174.192 3333.68 174.744 3333.57 175.384 3333.57C176.088 3333.57 176.664 3333.69 177.112 3333.93C177.576 3334.19 177.944 3334.51 178.216 3334.89C178.488 3335.29 178.688 3335.74 178.816 3336.24C178.96 3336.75 179.072 3337.26 179.152 3337.77C179.232 3338.28 179.296 3338.79 179.344 3339.28C179.392 3339.78 179.464 3340.22 179.56 3340.6C179.656 3340.99 179.792 3341.29 179.968 3341.52C180.16 3341.74 180.432 3341.84 180.784 3341.83C181.152 3341.83 181.44 3341.76 181.648 3341.64C181.872 3341.52 182.04 3341.36 182.152 3341.16C182.28 3340.96 182.36 3340.73 182.392 3340.46C182.44 3340.2 182.464 3339.92 182.464 3339.62C182.464 3338.95 182.32 3338.42 182.032 3338.04C181.744 3337.65 181.264 3337.43 180.592 3337.36V3333.96ZM178.072 3341.83C177.944 3341.68 177.84 3341.5 177.76 3341.28C177.696 3341.07 177.64 3340.84 177.592 3340.58C177.544 3340.34 177.504 3340.08 177.472 3339.81C177.44 3339.54 177.4 3339.27 177.352 3339C177.304 3338.74 177.24 3338.48 177.16 3338.23C177.08 3337.99 176.968 3337.77 176.824 3337.58C176.696 3337.4 176.528 3337.26 176.32 3337.15C176.112 3337.04 175.848 3336.98 175.528 3336.98C175.224 3336.98 174.968 3337.04 174.76 3337.15C174.552 3337.26 174.384 3337.41 174.256 3337.6C174.144 3337.8 174.064 3338.02 174.016 3338.28C173.968 3338.53 173.944 3338.8 173.944 3339.07C173.944 3339.74 174.056 3340.26 174.28 3340.63C174.504 3341 174.768 3341.27 175.072 3341.44C175.392 3341.62 175.712 3341.72 176.032 3341.76C176.352 3341.8 176.608 3341.83 176.8 3341.83H178.072ZM189.136 3347.88V3351.29H182.68V3351.36C183.4 3351.79 183.92 3352.35 184.24 3353.02C184.576 3353.69 184.744 3354.35 184.744 3354.99C184.744 3355.9 184.616 3356.64 184.36 3357.22C184.12 3357.81 183.776 3358.27 183.328 3358.61C182.896 3358.95 182.36 3359.18 181.72 3359.31C181.096 3359.45 180.4 3359.52 179.632 3359.52H172V3356.11H179.008C180.032 3356.11 180.792 3355.95 181.288 3355.63C181.8 3355.31 182.056 3354.75 182.056 3353.93C182.056 3353 181.776 3352.33 181.216 3351.91C180.672 3351.5 179.768 3351.29 178.504 3351.29H172V3347.88H189.136ZM178.192 3365.13C177.696 3365.13 177.208 3365.18 176.728 3365.28C176.264 3365.37 175.84 3365.53 175.456 3365.76C175.088 3366 174.792 3366.31 174.568 3366.69C174.344 3367.08 174.232 3367.56 174.232 3368.13C174.232 3368.71 174.344 3369.19 174.568 3369.57C174.792 3369.97 175.088 3370.28 175.456 3370.51C175.84 3370.75 176.264 3370.92 176.728 3371.01C177.208 3371.11 177.696 3371.16 178.192 3371.16C178.688 3371.16 179.176 3371.11 179.656 3371.01C180.136 3370.92 180.56 3370.75 180.928 3370.51C181.296 3370.28 181.592 3369.97 181.816 3369.57C182.056 3369.19 182.176 3368.71 182.176 3368.13C182.176 3367.56 182.056 3367.08 181.816 3366.69C181.592 3366.31 181.296 3366 180.928 3365.76C180.56 3365.53 180.136 3365.37 179.656 3365.28C179.176 3365.18 178.688 3365.13 178.192 3365.13ZM178.192 3361.72C179.184 3361.72 180.08 3361.88 180.88 3362.18C181.696 3362.48 182.384 3362.92 182.944 3363.48C183.52 3364.04 183.96 3364.71 184.264 3365.49C184.584 3366.28 184.744 3367.16 184.744 3368.13C184.744 3369.11 184.584 3369.99 184.264 3370.77C183.96 3371.57 183.52 3372.25 182.944 3372.81C182.384 3373.37 181.696 3373.8 180.88 3374.11C180.08 3374.41 179.184 3374.56 178.192 3374.56C177.2 3374.56 176.304 3374.41 175.504 3374.11C174.704 3373.8 174.016 3373.37 173.44 3372.81C172.88 3372.25 172.448 3371.57 172.144 3370.77C171.84 3369.99 171.688 3369.11 171.688 3368.13C171.688 3367.16 171.84 3366.28 172.144 3365.49C172.448 3364.71 172.88 3364.04 173.44 3363.48C174.016 3362.92 174.704 3362.48 175.504 3362.18C176.304 3361.88 177.2 3361.72 178.192 3361.72ZM178.192 3379.8C177.696 3379.8 177.208 3379.85 176.728 3379.95C176.264 3380.04 175.84 3380.2 175.456 3380.43C175.088 3380.67 174.792 3380.98 174.568 3381.36C174.344 3381.75 174.232 3382.23 174.232 3382.8C174.232 3383.38 174.344 3383.86 174.568 3384.24C174.792 3384.64 175.088 3384.96 175.456 3385.18C175.84 3385.42 176.264 3385.59 176.728 3385.68C177.208 3385.78 177.696 3385.83 178.192 3385.83C178.688 3385.83 179.176 3385.78 179.656 3385.68C180.136 3385.59 180.56 3385.42 180.928 3385.18C181.296 3384.96 181.592 3384.64 181.816 3384.24C182.056 3383.86 182.176 3383.38 182.176 3382.8C182.176 3382.23 182.056 3381.75 181.816 3381.36C181.592 3380.98 181.296 3380.67 180.928 3380.43C180.56 3380.2 180.136 3380.04 179.656 3379.95C179.176 3379.85 178.688 3379.8 178.192 3379.8ZM178.192 3376.4C179.184 3376.4 180.08 3376.55 180.88 3376.85C181.696 3377.16 182.384 3377.59 182.944 3378.15C183.52 3378.71 183.96 3379.38 184.264 3380.16C184.584 3380.95 184.744 3381.83 184.744 3382.8C184.744 3383.78 184.584 3384.66 184.264 3385.44C183.96 3386.24 183.52 3386.92 182.944 3387.48C182.384 3388.04 181.696 3388.48 180.88 3388.78C180.08 3389.08 179.184 3389.24 178.192 3389.24C177.2 3389.24 176.304 3389.08 175.504 3388.78C174.704 3388.48 174.016 3388.04 173.44 3387.48C172.88 3386.92 172.448 3386.24 172.144 3385.44C171.84 3384.66 171.688 3383.78 171.688 3382.8C171.688 3381.83 171.84 3380.95 172.144 3380.16C172.448 3379.38 172.88 3378.71 173.44 3378.15C174.016 3377.59 174.704 3377.16 175.504 3376.85C176.304 3376.55 177.2 3376.4 178.192 3376.4Z" fill="black"/>
<path d="M106.944 3333.04C106.08 3332.37 105.472 3331.62 105.12 3330.81C104.784 3329.99 104.616 3329.17 104.616 3328.34C104.616 3327.02 104.84 3325.84 105.288 3324.78C105.752 3323.74 106.384 3322.86 107.184 3322.14C107.984 3321.42 108.92 3320.87 109.992 3320.49C111.08 3320.1 112.248 3319.91 113.496 3319.91C114.776 3319.91 115.96 3320.1 117.048 3320.49C118.152 3320.87 119.112 3321.42 119.928 3322.14C120.744 3322.86 121.384 3323.74 121.848 3324.78C122.312 3325.84 122.544 3327.02 122.544 3328.34C122.544 3329.22 122.408 3330.06 122.136 3330.88C121.88 3331.71 121.496 3332.46 120.984 3333.11C120.472 3333.78 119.84 3334.34 119.088 3334.77C118.336 3335.2 117.472 3335.46 116.496 3335.56V3331.96C117.456 3331.74 118.176 3331.3 118.656 3330.66C119.136 3330.02 119.376 3329.25 119.376 3328.34C119.376 3327.49 119.208 3326.77 118.872 3326.18C118.552 3325.58 118.112 3325.1 117.552 3324.74C117.008 3324.37 116.384 3324.1 115.68 3323.92C114.976 3323.76 114.248 3323.68 113.496 3323.68C112.776 3323.68 112.072 3323.76 111.384 3323.92C110.712 3324.1 110.104 3324.37 109.56 3324.74C109.016 3325.1 108.576 3325.58 108.24 3326.18C107.92 3326.77 107.76 3327.49 107.76 3328.34C107.76 3329.58 108.072 3330.54 108.696 3331.22C109.336 3331.9 110.256 3332.3 111.456 3332.42V3328.62H114.264V3335.82H105V3333.42L106.944 3333.04ZM111.192 3341.53C110.696 3341.53 110.208 3341.58 109.728 3341.67C109.264 3341.77 108.84 3341.93 108.456 3342.15C108.088 3342.39 107.792 3342.71 107.568 3343.09C107.344 3343.47 107.232 3343.95 107.232 3344.53C107.232 3345.11 107.344 3345.59 107.568 3345.97C107.792 3346.37 108.088 3346.68 108.456 3346.91C108.84 3347.15 109.264 3347.31 109.728 3347.41C110.208 3347.51 110.696 3347.55 111.192 3347.55C111.688 3347.55 112.176 3347.51 112.656 3347.41C113.136 3347.31 113.56 3347.15 113.928 3346.91C114.296 3346.68 114.592 3346.37 114.816 3345.97C115.056 3345.59 115.176 3345.11 115.176 3344.53C115.176 3343.95 115.056 3343.47 114.816 3343.09C114.592 3342.71 114.296 3342.39 113.928 3342.15C113.56 3341.93 113.136 3341.77 112.656 3341.67C112.176 3341.58 111.688 3341.53 111.192 3341.53ZM111.192 3338.12C112.184 3338.12 113.08 3338.27 113.88 3338.58C114.696 3338.88 115.384 3339.31 115.944 3339.87C116.52 3340.43 116.96 3341.11 117.264 3341.89C117.584 3342.67 117.744 3343.55 117.744 3344.53C117.744 3345.51 117.584 3346.39 117.264 3347.17C116.96 3347.97 116.52 3348.65 115.944 3349.21C115.384 3349.77 114.696 3350.2 113.88 3350.51C113.08 3350.81 112.184 3350.96 111.192 3350.96C110.2 3350.96 109.304 3350.81 108.504 3350.51C107.704 3350.2 107.016 3349.77 106.44 3349.21C105.88 3348.65 105.448 3347.97 105.144 3347.17C104.84 3346.39 104.688 3345.51 104.688 3344.53C104.688 3343.55 104.84 3342.67 105.144 3341.89C105.448 3341.11 105.88 3340.43 106.44 3339.87C107.016 3339.31 107.704 3338.88 108.504 3338.58C109.304 3338.27 110.2 3338.12 111.192 3338.12ZM111.192 3356.2C110.696 3356.2 110.208 3356.25 109.728 3356.35C109.264 3356.44 108.84 3356.6 108.456 3356.83C108.088 3357.07 107.792 3357.38 107.568 3357.76C107.344 3358.15 107.232 3358.63 107.232 3359.2C107.232 3359.78 107.344 3360.26 107.568 3360.64C107.792 3361.04 108.088 3361.35 108.456 3361.58C108.84 3361.82 109.264 3361.99 109.728 3362.08C110.208 3362.18 110.696 3362.23 111.192 3362.23C111.688 3362.23 112.176 3362.18 112.656 3362.08C113.136 3361.99 113.56 3361.82 113.928 3361.58C114.296 3361.35 114.592 3361.04 114.816 3360.64C115.056 3360.26 115.176 3359.78 115.176 3359.2C115.176 3358.63 115.056 3358.15 114.816 3357.76C114.592 3357.38 114.296 3357.07 113.928 3356.83C113.56 3356.6 113.136 3356.44 112.656 3356.35C112.176 3356.25 111.688 3356.2 111.192 3356.2ZM111.192 3352.79C112.184 3352.79 113.08 3352.95 113.88 3353.25C114.696 3353.55 115.384 3353.99 115.944 3354.55C116.52 3355.11 116.96 3355.78 117.264 3356.56C117.584 3357.35 117.744 3358.23 117.744 3359.2C117.744 3360.18 117.584 3361.06 117.264 3361.84C116.96 3362.64 116.52 3363.32 115.944 3363.88C115.384 3364.44 114.696 3364.87 113.88 3365.18C113.08 3365.48 112.184 3365.63 111.192 3365.63C110.2 3365.63 109.304 3365.48 108.504 3365.18C107.704 3364.87 107.016 3364.44 106.44 3363.88C105.88 3363.32 105.448 3362.64 105.144 3361.84C104.84 3361.06 104.688 3360.18 104.688 3359.2C104.688 3358.23 104.84 3357.35 105.144 3356.56C105.448 3355.78 105.88 3355.11 106.44 3354.55C107.016 3353.99 107.704 3353.55 108.504 3353.25C109.304 3352.95 110.2 3352.79 111.192 3352.79ZM107.928 3373.63C107.928 3374.11 108.024 3374.54 108.216 3374.91C108.408 3375.27 108.664 3375.58 108.984 3375.82C109.304 3376.06 109.664 3376.23 110.064 3376.35C110.48 3376.47 110.912 3376.54 111.36 3376.54C111.872 3376.54 112.352 3376.49 112.8 3376.39C113.264 3376.3 113.672 3376.14 114.024 3375.91C114.376 3375.69 114.656 3375.39 114.864 3375.03C115.072 3374.66 115.176 3374.19 115.176 3373.63C115.176 3373.15 115.08 3372.74 114.888 3372.39C114.696 3372.05 114.432 3371.76 114.096 3371.52C113.776 3371.3 113.4 3371.13 112.968 3371.02C112.552 3370.92 112.112 3370.87 111.648 3370.87C111.2 3370.87 110.752 3370.91 110.304 3370.99C109.872 3371.09 109.48 3371.24 109.128 3371.45C108.776 3371.67 108.488 3371.96 108.264 3372.31C108.04 3372.67 107.928 3373.11 107.928 3373.63ZM105.792 3379.78C105.296 3379.78 104.728 3379.71 104.088 3379.56C103.448 3379.43 102.856 3379.15 102.312 3378.7C101.752 3378.25 101.28 3377.6 100.896 3376.75C100.512 3375.91 100.32 3374.77 100.32 3373.35C100.32 3372.74 100.4 3372.11 100.56 3371.47C100.704 3370.85 100.936 3370.27 101.256 3369.75C101.576 3369.23 101.992 3368.8 102.504 3368.45C103 3368.11 103.6 3367.92 104.304 3367.87V3371.26C103.664 3371.42 103.224 3371.73 102.984 3372.19C102.728 3372.66 102.6 3373.19 102.6 3373.8C102.6 3374.76 102.888 3375.46 103.464 3375.89C104.04 3376.34 104.768 3376.55 105.648 3376.54H107.28V3376.49C106.624 3376.12 106.136 3375.59 105.816 3374.91C105.512 3374.23 105.36 3373.52 105.36 3372.77C105.36 3371.84 105.52 3371.04 105.84 3370.37C106.176 3369.7 106.624 3369.15 107.184 3368.71C107.76 3368.28 108.424 3367.96 109.176 3367.75C109.944 3367.56 110.752 3367.47 111.6 3367.47C112.4 3367.47 113.168 3367.58 113.904 3367.8C114.656 3368.04 115.312 3368.39 115.872 3368.83C116.448 3369.28 116.904 3369.83 117.24 3370.49C117.576 3371.16 117.744 3371.93 117.744 3372.79C117.744 3373.61 117.592 3374.32 117.288 3374.93C116.984 3375.55 116.472 3376.07 115.752 3376.49V3376.54H117.408V3379.78H105.792ZM122.136 3382.62V3386.03H105V3382.62H122.136ZM112.536 3397.06C113.4 3396.9 114.056 3396.61 114.504 3396.2C114.952 3395.8 115.176 3395.18 115.176 3394.35C115.176 3393.81 115.08 3393.35 114.888 3392.98C114.712 3392.63 114.488 3392.34 114.216 3392.12C113.944 3391.91 113.656 3391.76 113.352 3391.66C113.048 3391.58 112.776 3391.53 112.536 3391.52V3397.06ZM110.376 3391.52C109.272 3391.57 108.472 3391.85 107.976 3392.36C107.48 3392.87 107.232 3393.61 107.232 3394.57C107.232 3395.25 107.4 3395.85 107.736 3396.34C108.088 3396.84 108.456 3397.14 108.84 3397.25V3400.25C107.352 3399.77 106.288 3399.04 105.648 3398.05C105.008 3397.05 104.688 3395.85 104.688 3394.45C104.688 3393.47 104.84 3392.59 105.144 3391.81C105.464 3391.02 105.912 3390.36 106.488 3389.81C107.064 3389.27 107.752 3388.85 108.552 3388.54C109.352 3388.25 110.232 3388.11 111.192 3388.11C112.12 3388.11 112.984 3388.26 113.784 3388.57C114.584 3388.87 115.272 3389.3 115.848 3389.86C116.44 3390.42 116.904 3391.09 117.24 3391.85C117.576 3392.64 117.744 3393.5 117.744 3394.45C117.744 3395.5 117.536 3396.42 117.12 3397.21C116.72 3397.99 116.176 3398.63 115.488 3399.13C114.8 3399.64 114.016 3400.01 113.136 3400.23C112.256 3400.45 111.336 3400.53 110.376 3400.47V3391.52Z" fill="black"/>
<path d="M250.5 904L178 852.75L126.638 816.443C113.382 807.072 105.5 791.848 105.5 775.614L105.5 669.5V373.278C105.5 350.518 87.4941 331.837 64.75 331V331C42.0059 330.163 24 311.482 24 288.722L24 43" stroke="#2F9F61" stroke-width="20"/>
<circle cx="105.5" cy="506.5" r="9" fill="white"/>
<circle cx="105.5" cy="614.5" r="9" fill="white"/>
<circle cx="105.5" cy="722.5" r="9" fill="white"/>
<circle cx="226" cy="887" r="9" fill="white"/>
<circle cx="24" cy="24" r="19" fill="white" stroke="#2F9F61" stroke-width="10"/>
<path d="M213 849L295.043 907.545C308.194 916.93 316 932.09 316 948.245V1291.49C316 1303.73 311.505 1315.56 303.367 1324.71L76.1331 1580.29C67.9953 1589.44 63.5 1601.27 63.5 1613.51V2347C63.5 2374.61 85.8858 2397 113.5 2397H187" stroke="#1179C2" stroke-width="20"/>
<circle cx="222.5" cy="1415.5" r="9" fill="white"/>
<circle cx="76" cy="1580" r="9" fill="white"/>
<circle cx="149" cy="1499" r="9" fill="white"/>
<circle cx="239" cy="868" r="9" fill="white"/>
<path d="M261.5 3213.5V2394C261.5 2382.95 252.546 2374 241.5 2374H113C98.6406 2374 87 2362.36 87 2348V1611.62C87 1606.71 88.8044 1601.98 92.0697 1598.31L271.5 1397" stroke="#F80D0D" stroke-width="20"/>
<circle cx="262" cy="3040" r="9" fill="white"/>
<circle cx="262" cy="3181" r="9" fill="white"/>
<circle cx="87" cy="2252" r="9" fill="white"/>
<circle cx="94" cy="1596" r="9" fill="white"/>
<circle cx="165" cy="1516" r="9" fill="white"/>
<circle cx="239" cy="1433" r="9" fill="white"/>
<path d="M238 2973V3239C238 3266.61 215.614 3289 188 3289H42.5" stroke="#FFDD00" stroke-width="20"/>
<circle cx="238" cy="3040" r="9" fill="white"/>
<circle cx="238" cy="3181" r="9" fill="white"/>
<circle cx="181" cy="3289" r="9" fill="white"/>
<circle cx="113" cy="3289" r="9" fill="white"/>
<circle cx="43" cy="3289" r="19" fill="white" stroke="#FFDD00" stroke-width="10"/>
</svg>
