<svg width="94" height="94" viewBox="0 0 94 94" fill="none" xmlns="http://www.w3.org/2000/svg">
<path fill-rule="evenodd" clip-rule="evenodd" d="M76.6209 28.0174C74.4459 29.008 72.1041 29.6778 69.6476 29.9771C72.1562 28.4379 74.081 25.9972 74.9879 23.0899C72.6391 24.515 70.0437 25.5519 67.271 26.1077C65.0613 23.6884 61.9029 22.1777 58.4076 22.1777C51.7052 22.1777 46.2676 27.7538 46.2676 34.6303C46.2676 35.6065 46.3719 36.5543 46.5803 37.4664C36.4869 36.9462 27.5401 31.9937 21.5465 24.4509C20.5007 26.2965 19.9031 28.4379 19.9031 30.7182C19.9031 35.0365 22.0469 38.8489 25.306 41.0828C23.3185 41.0223 21.4423 40.4558 19.8023 39.5294V39.6826C19.8023 45.7182 23.9891 50.7527 29.5483 51.8929C28.5303 52.185 27.4567 52.3311 26.3483 52.3311C25.5665 52.3311 24.8022 52.2563 24.0621 52.1102C25.6082 57.0556 30.0903 60.6578 35.4063 60.754C31.2508 64.096 26.0113 66.0877 20.3235 66.0877C19.3437 66.0877 18.3743 66.0307 17.4258 65.9167C22.8008 69.444 29.187 71.507 36.0422 71.507C58.3832 71.507 70.5961 52.5342 70.5961 36.0769C70.5961 35.5353 70.5857 34.9937 70.5648 34.4628C72.9379 32.7063 74.9983 30.5151 76.6209 28.0174Z" fill="#5D5D5D"/>
</svg>
